<svg width="544" height="683" viewBox="0 0 544 683" fill="none" xmlns="http://www.w3.org/2000/svg">
<path d="M522.143 301H324.01C318.52 300.994 313.257 298.81 309.375 294.928C305.493 291.047 303.31 285.784 303.304 280.294V21.7055C303.31 16.2159 305.493 10.953 309.375 7.07127C313.257 3.18958 318.52 1.00612 324.01 0.999939H522.143C527.632 1.00613 532.895 3.18958 536.777 7.07127C540.659 10.953 542.842 16.2159 542.849 21.7055V280.294C542.843 285.784 540.659 291.047 536.777 294.928C532.896 298.81 527.633 300.994 522.143 301Z" fill="#EAECF0"/>
<path d="M522.143 302H324.01C318.255 301.993 312.738 299.704 308.669 295.635C304.599 291.565 302.31 286.048 302.304 280.294V21.7056C302.311 15.9509 304.599 10.4338 308.669 6.36469C312.738 2.29553 318.255 0.00658231 324.01 0H522.143C527.898 0.00648171 533.415 2.29537 537.484 6.36454C541.553 10.4337 543.842 15.9508 543.849 21.7056V280.293C543.842 286.048 541.553 291.566 537.484 295.635C533.415 299.704 527.898 301.993 522.143 302ZM324.01 2C318.785 2.00589 313.776 4.08389 310.082 7.77813C306.388 11.4724 304.31 16.4811 304.304 21.7056V280.293C304.31 285.518 306.388 290.527 310.082 294.221C313.776 297.915 318.785 299.994 324.009 299.999H522.143C527.367 299.994 532.376 297.916 536.071 294.221C539.765 290.527 541.843 285.518 541.849 280.293V21.7056C541.843 16.4811 539.765 11.4722 536.071 7.77799C532.376 4.08375 527.367 2.00579 522.143 2H324.01Z" fill="#3366CC"/>
<path d="M419.571 333.003C439.349 333.003 455.382 316.97 455.382 297.192C455.382 277.414 439.349 261.381 419.571 261.381C399.793 261.381 383.76 277.414 383.76 297.192C383.76 316.97 399.793 333.003 419.571 333.003Z" fill="#3366CC"/>
<path d="M414.686 315.83C414.067 315.83 413.457 315.686 412.904 315.409C412.351 315.133 411.87 314.731 411.499 314.236L401.729 301.21C401.415 300.791 401.187 300.315 401.057 299.808C400.927 299.301 400.899 298.774 400.973 298.256C401.047 297.738 401.222 297.24 401.488 296.79C401.755 296.34 402.108 295.947 402.526 295.633C402.945 295.319 403.421 295.091 403.928 294.961C404.434 294.831 404.962 294.802 405.48 294.876C405.997 294.95 406.496 295.126 406.946 295.392C407.396 295.659 407.789 296.011 408.103 296.43L414.495 304.951L430.911 280.327C431.498 279.452 432.409 278.845 433.443 278.64C434.478 278.435 435.551 278.648 436.428 279.233C437.305 279.818 437.915 280.726 438.123 281.76C438.332 282.794 438.122 283.868 437.54 284.747L418 314.056C417.647 314.586 417.171 315.024 416.614 315.332C416.056 315.641 415.433 315.811 414.796 315.829C414.759 315.829 414.722 315.83 414.686 315.83Z" fill="white"/>
<path d="M388.5 439.291H8.5C6.24646 439.288 4.08596 438.392 2.49246 436.798C0.898966 435.205 0.002599 433.044 0 430.791V86.7909C0.00251448 84.5373 0.898856 82.3768 2.49237 80.7833C4.08589 79.1897 6.24643 78.2934 8.5 78.2909H388.5C390.754 78.2934 392.914 79.1897 394.508 80.7832C396.101 82.3768 396.997 84.5373 397 86.7909V430.791C396.997 433.044 396.101 435.205 394.508 436.798C392.914 438.392 390.754 439.288 388.5 439.291V439.291Z" fill="#1C325E"/>
<path d="M380.5 431.291H16.5C14.2465 431.288 12.086 430.392 10.4925 428.798C8.89897 427.205 8.0026 425.044 8 422.791V94.7909C8.00251 92.5373 8.89886 90.3768 10.4924 88.7833C12.0859 87.1897 14.2464 86.2934 16.5 86.2909H380.5C382.754 86.2934 384.914 87.1897 386.508 88.7832C388.101 90.3768 388.997 92.5373 389 94.7909V422.791C388.997 425.044 388.101 427.205 386.508 428.798C384.914 430.392 382.754 431.288 380.5 431.291Z" fill="white"/>
<path d="M34.9937 121.925C77.831 121.18 120.673 121.073 163.519 121.604C206.36 122.138 249.186 123.313 291.997 125.128C316.02 126.147 340.034 127.367 364.038 128.789C365.966 128.904 365.96 125.903 364.038 125.789C321.269 123.259 278.469 121.365 235.637 120.108C192.812 118.855 149.975 118.243 107.125 118.271C83.0796 118.287 59.036 118.505 34.9937 118.925C33.0654 118.958 33.0593 121.958 34.9937 121.925V121.925Z" fill="#1C325E"/>
<path d="M333.529 103.114L352.261 101.72C354.174 101.577 354.19 98.5763 352.261 98.7198L333.529 100.114C331.616 100.256 331.6 103.258 333.529 103.114V103.114Z" fill="#1C325E"/>
<path d="M333.529 121.114L352.261 119.72C354.174 119.577 354.19 116.576 352.261 116.72L333.529 118.114C331.616 118.256 331.6 121.258 333.529 121.114V121.114Z" fill="#1C325E"/>
<path d="M332.12 112.894L358.752 115.313C360.674 115.488 360.662 112.487 358.752 112.313L332.12 109.894C330.198 109.719 330.21 112.72 332.12 112.894V112.894Z" fill="#1C325E"/>
<path d="M46.0794 99.0795C44.7768 99.0714 43.5006 99.447 42.41 100.159C41.3193 100.872 40.4625 101.889 39.9462 103.085C39.3687 104.256 39.1904 105.583 39.4386 106.864C39.6869 108.146 40.348 109.311 41.3208 110.181C42.2354 110.959 43.3323 111.492 44.5091 111.731C45.6858 111.971 46.9039 111.907 48.0496 111.548C49.2213 111.139 50.2373 110.376 50.9579 109.366C51.6784 108.355 52.068 107.146 52.073 105.905C52.1253 104.528 51.7523 103.169 51.0047 102.011C50.257 100.854 49.1711 99.9547 47.8944 99.4362C47.5109 99.332 47.1017 99.3836 46.756 99.5799C46.4104 99.7761 46.1563 100.101 46.0493 100.484C45.9547 100.867 46.0105 101.272 46.2054 101.615C46.4003 101.958 46.7194 102.214 47.0969 102.329C47.3583 102.43 46.8581 102.201 47.1022 102.333C47.2026 102.388 47.3048 102.438 47.4034 102.496C47.4872 102.546 47.5674 102.6 47.6489 102.653C47.9289 102.836 47.5122 102.519 47.6912 102.683C47.8464 102.826 48.0002 102.965 48.1412 103.122C48.1946 103.181 48.4036 103.347 48.2412 103.231C48.1169 103.143 48.1932 103.163 48.2412 103.234C48.2775 103.288 48.3159 103.341 48.3518 103.395C48.4687 103.572 48.575 103.756 48.6702 103.945C48.6922 103.989 48.7124 104.034 48.7348 104.078C48.7768 104.159 48.8377 104.181 48.7389 104.078C48.6446 103.981 48.7046 103.987 48.7384 104.081C48.7606 104.143 48.7848 104.205 48.8064 104.267C48.8767 104.469 48.9358 104.675 48.9832 104.884C49.0052 104.981 49.0229 105.078 49.0418 105.175C49.1088 105.519 49.0321 104.961 49.0483 105.217C49.0618 105.43 49.0775 105.642 49.0738 105.856C49.0721 105.954 49.0678 106.052 49.061 106.15C49.0576 106.199 49.0521 106.248 49.0489 106.297C49.0333 106.532 49.0328 106.211 49.0658 106.189C48.9972 106.388 48.9517 106.595 48.9302 106.806C48.9034 106.899 48.8715 106.99 48.8416 107.082C48.7372 107.404 48.9395 106.907 48.8283 107.127C48.7368 107.316 48.6344 107.499 48.5219 107.676C48.473 107.751 48.2887 107.918 48.4394 107.802C48.6029 107.675 48.3537 107.893 48.3005 107.949C48.2321 108.021 48.1612 108.091 48.0877 108.158C48.0407 108.204 47.991 108.247 47.939 108.287C47.9294 108.282 48.1896 108.113 48.0494 108.203C47.8711 108.317 47.7024 108.438 47.5145 108.537C47.4927 108.549 47.2525 108.66 47.2535 108.664C47.2432 108.623 47.5622 108.551 47.3432 108.622C47.2972 108.637 47.2521 108.655 47.2062 108.67C47.0068 108.738 46.8033 108.792 46.5969 108.833C46.5496 108.842 46.4997 108.847 46.4531 108.859C46.2981 108.899 46.6013 108.835 46.6104 108.841C46.4958 108.836 46.381 108.846 46.2691 108.871C46.0562 108.883 45.8429 108.883 45.6301 108.871C45.5808 108.868 45.5317 108.863 45.4825 108.86C45.3681 108.854 45.2843 108.771 45.4364 108.861C45.5537 108.93 45.544 108.879 45.44 108.86C45.3914 108.851 45.3425 108.844 45.2939 108.834C45.0833 108.795 44.875 108.744 44.6699 108.682C44.5596 108.648 44.4515 108.609 44.3427 108.571C44.2952 108.557 44.2491 108.539 44.2047 108.518C44.204 108.505 44.4852 108.652 44.3367 108.572C44.1494 108.471 43.9556 108.386 43.7726 108.276C43.675 108.217 43.5812 108.153 43.4863 108.09C43.4445 108.065 43.4048 108.037 43.3676 108.005C43.3707 107.992 43.6001 108.205 43.4797 108.09C43.3274 107.945 43.1645 107.815 43.0202 107.661C42.9872 107.625 42.956 107.588 42.9231 107.553L42.8913 107.516C42.81 107.417 42.8085 107.418 42.8868 107.518C42.9663 107.541 42.9627 107.629 42.8872 107.515C42.8604 107.475 42.8318 107.436 42.805 107.395C42.6831 107.222 42.5793 107.036 42.4949 106.842C42.5022 106.836 42.6249 107.202 42.5311 106.926C42.5134 106.874 42.4934 106.822 42.4761 106.77C42.4416 106.666 42.4113 106.561 42.385 106.454C42.3591 106.349 42.3458 106.241 42.3196 106.136C42.2756 105.959 42.3454 106.275 42.3374 106.267C42.3124 106.243 42.3231 106.089 42.3212 106.053C42.3092 105.817 42.336 105.589 42.3402 105.355C42.3435 105.174 42.3252 105.496 42.3214 105.487C42.3223 105.433 42.332 105.379 42.3499 105.327C42.3771 105.204 42.4023 105.081 42.4356 104.959C42.4736 104.819 42.5174 104.681 42.567 104.545C42.5855 104.494 42.6081 104.444 42.6254 104.392C42.6885 104.204 42.5004 104.62 42.6041 104.45C42.7468 104.216 42.8531 103.963 43.0046 103.732C43.0405 103.678 43.2588 103.373 43.1429 103.527C43.0276 103.68 43.2615 103.39 43.3058 103.34C43.4898 103.135 43.7062 102.967 43.8967 102.771C44.0095 102.655 43.818 102.828 43.8067 102.836C43.8657 102.794 43.9234 102.75 43.9832 102.709C44.0873 102.637 44.194 102.57 44.3033 102.506C44.4263 102.434 44.5655 102.38 44.6847 102.303C44.8256 102.213 44.577 102.343 44.5725 102.346C44.6369 102.314 44.7042 102.288 44.7735 102.269C44.8896 102.228 45.3948 102.01 45.5007 102.078C45.4959 102.075 45.1172 102.109 45.4234 102.089C45.4957 102.084 45.5678 102.077 45.6403 102.074C45.7868 102.068 45.9329 102.072 46.0794 102.079C46.4764 102.077 46.8564 101.918 47.1371 101.637C47.4179 101.357 47.5768 100.976 47.5794 100.579C47.5709 100.184 47.4101 99.8077 47.1306 99.5282C46.8511 99.2487 46.4745 99.088 46.0794 99.0795V99.0795Z" fill="#1C325E"/>
<path d="M67.0794 99.0795C65.7768 99.0714 64.5006 99.447 63.41 100.159C62.3193 100.872 61.4625 101.889 60.9462 103.085C60.3687 104.256 60.1904 105.583 60.4386 106.864C60.6869 108.146 61.348 109.311 62.3208 110.181C63.2354 110.959 64.3323 111.492 65.5091 111.731C66.6858 111.971 67.9039 111.907 69.0496 111.548C70.2213 111.139 71.2373 110.376 71.9579 109.366C72.6784 108.355 73.068 107.146 73.073 105.905C73.1253 104.528 72.7523 103.169 72.0047 102.011C71.257 100.854 70.1711 99.9547 68.8944 99.4362C68.5109 99.332 68.1017 99.3836 67.756 99.5799C67.4104 99.7761 67.1563 100.101 67.0493 100.484C66.9547 100.867 67.0105 101.272 67.2054 101.615C67.4003 101.958 67.7194 102.214 68.0969 102.329C68.3583 102.43 67.8581 102.201 68.1022 102.333C68.2026 102.388 68.3048 102.438 68.4034 102.496C68.4872 102.546 68.5674 102.6 68.6489 102.653C68.9289 102.836 68.5122 102.519 68.6912 102.683C68.8464 102.826 69.0002 102.965 69.1412 103.122C69.1946 103.181 69.4036 103.347 69.2412 103.231C69.1169 103.143 69.1932 103.163 69.2412 103.234C69.2775 103.288 69.3159 103.341 69.3518 103.395C69.4687 103.572 69.575 103.756 69.6702 103.945C69.6922 103.989 69.7124 104.034 69.7348 104.078C69.7768 104.159 69.8377 104.181 69.7389 104.078C69.6446 103.981 69.7046 103.987 69.7384 104.081C69.7606 104.143 69.7848 104.205 69.8064 104.267C69.8767 104.469 69.9358 104.675 69.9832 104.884C70.0052 104.981 70.0229 105.078 70.0418 105.175C70.1088 105.519 70.0321 104.961 70.0483 105.217C70.0618 105.43 70.0775 105.642 70.0738 105.856C70.0721 105.954 70.0678 106.052 70.061 106.15C70.0576 106.199 70.0521 106.248 70.0489 106.297C70.0333 106.532 70.0328 106.211 70.0658 106.189C69.9972 106.388 69.9517 106.595 69.9302 106.806C69.9034 106.899 69.8715 106.99 69.8416 107.082C69.7372 107.404 69.9395 106.907 69.8283 107.127C69.7368 107.316 69.6344 107.499 69.5219 107.676C69.473 107.751 69.2887 107.918 69.4394 107.802C69.6029 107.675 69.3537 107.893 69.3005 107.949C69.2321 108.021 69.1612 108.091 69.0877 108.158C69.0407 108.204 68.991 108.247 68.939 108.287C68.9294 108.282 69.1896 108.113 69.0494 108.203C68.8711 108.317 68.7024 108.438 68.5145 108.537C68.4927 108.549 68.2525 108.66 68.2535 108.664C68.2432 108.623 68.5622 108.551 68.3432 108.622C68.2972 108.637 68.2521 108.655 68.2062 108.67C68.0068 108.738 67.8033 108.792 67.5969 108.833C67.5496 108.842 67.4997 108.847 67.4531 108.859C67.2981 108.899 67.6013 108.835 67.6104 108.841C67.4958 108.836 67.381 108.846 67.2691 108.871C67.0562 108.883 66.8429 108.883 66.6301 108.871C66.5808 108.868 66.5317 108.863 66.4825 108.86C66.3681 108.854 66.2843 108.771 66.4364 108.861C66.5537 108.93 66.544 108.879 66.44 108.86C66.3914 108.851 66.3425 108.844 66.2939 108.834C66.0833 108.795 65.875 108.744 65.6699 108.682C65.5596 108.648 65.4515 108.609 65.3427 108.571C65.2952 108.557 65.2491 108.539 65.2047 108.518C65.204 108.505 65.4852 108.652 65.3367 108.572C65.1494 108.471 64.9556 108.386 64.7726 108.276C64.675 108.217 64.5812 108.153 64.4863 108.09C64.4445 108.065 64.4048 108.037 64.3676 108.005C64.3707 107.992 64.6001 108.205 64.4797 108.09C64.3274 107.945 64.1645 107.815 64.0202 107.661C63.9872 107.625 63.956 107.588 63.9231 107.553L63.8913 107.516C63.81 107.417 63.8085 107.418 63.8868 107.518C63.9663 107.541 63.9627 107.629 63.8872 107.515C63.8604 107.475 63.8318 107.436 63.805 107.395C63.6831 107.222 63.5793 107.036 63.4949 106.842C63.5022 106.836 63.6249 107.202 63.5311 106.926C63.5134 106.874 63.4934 106.822 63.4761 106.77C63.4416 106.666 63.4113 106.561 63.385 106.454C63.3591 106.349 63.3458 106.241 63.3196 106.136C63.2756 105.959 63.3454 106.275 63.3374 106.267C63.3124 106.243 63.3231 106.089 63.3212 106.053C63.3092 105.817 63.336 105.589 63.3402 105.355C63.3435 105.174 63.3252 105.496 63.3214 105.487C63.3223 105.433 63.332 105.379 63.3499 105.327C63.3771 105.204 63.4023 105.081 63.4356 104.959C63.4736 104.819 63.5174 104.681 63.567 104.545C63.5855 104.494 63.6081 104.444 63.6254 104.392C63.6885 104.204 63.5004 104.62 63.6041 104.45C63.7468 104.216 63.8531 103.963 64.0046 103.732C64.0405 103.678 64.2588 103.373 64.1429 103.527C64.0276 103.68 64.2615 103.39 64.3058 103.34C64.4898 103.135 64.7062 102.967 64.8967 102.771C65.0095 102.655 64.818 102.828 64.8067 102.836C64.8657 102.794 64.9234 102.75 64.9832 102.709C65.0873 102.637 65.194 102.57 65.3033 102.506C65.4263 102.434 65.5655 102.38 65.6847 102.303C65.8256 102.213 65.577 102.343 65.5725 102.346C65.6369 102.314 65.7042 102.288 65.7735 102.269C65.8896 102.228 66.3948 102.01 66.5007 102.078C66.4959 102.075 66.1172 102.109 66.4234 102.089C66.4957 102.084 66.5678 102.077 66.6403 102.074C66.7868 102.068 66.9329 102.072 67.0794 102.079C67.4764 102.077 67.8564 101.918 68.1371 101.637C68.4179 101.357 68.5768 100.976 68.5794 100.579C68.5709 100.184 68.4101 99.8077 68.1306 99.5282C67.8511 99.2487 67.4745 99.088 67.0794 99.0795V99.0795Z" fill="#1C325E"/>
<path d="M88.0794 99.0795C86.7768 99.0714 85.5006 99.447 84.41 100.159C83.3193 100.872 82.4625 101.889 81.9462 103.085C81.3687 104.256 81.1904 105.583 81.4386 106.864C81.6869 108.146 82.348 109.311 83.3208 110.181C84.2354 110.959 85.3323 111.492 86.509 111.731C87.6858 111.971 88.9039 111.907 90.0496 111.548C91.2213 111.139 92.2373 110.376 92.9578 109.366C93.6784 108.355 94.068 107.146 94.073 105.905C94.1253 104.528 93.7523 103.169 93.0047 102.011C92.257 100.854 91.1711 99.9547 89.8944 99.4362C89.5109 99.332 89.1017 99.3836 88.756 99.5799C88.4104 99.7761 88.1563 100.101 88.0493 100.484C87.9547 100.867 88.0105 101.272 88.2054 101.615C88.4003 101.958 88.7194 102.214 89.0969 102.329C89.3583 102.43 88.8581 102.201 89.1022 102.333C89.2026 102.388 89.3048 102.438 89.4034 102.496C89.4872 102.546 89.5674 102.6 89.6489 102.653C89.9289 102.836 89.5122 102.519 89.6911 102.683C89.8464 102.826 90.0002 102.965 90.1412 103.122C90.1946 103.181 90.4035 103.347 90.2411 103.231C90.1169 103.143 90.1932 103.163 90.2411 103.234C90.2774 103.288 90.3158 103.341 90.3517 103.395C90.4687 103.572 90.575 103.756 90.6701 103.945C90.6922 103.989 90.7123 104.034 90.7347 104.078C90.7767 104.159 90.8376 104.181 90.7389 104.078C90.6445 103.981 90.7046 103.987 90.7384 104.081C90.7605 104.143 90.7848 104.205 90.8064 104.267C90.8767 104.469 90.9357 104.675 90.9832 104.884C91.0052 104.981 91.0229 105.078 91.0418 105.175C91.1088 105.519 91.032 104.961 91.0482 105.217C91.0617 105.43 91.0775 105.642 91.0737 105.856C91.072 105.954 91.0678 106.052 91.061 106.15C91.0575 106.199 91.0521 106.248 91.0488 106.297C91.0333 106.532 91.0328 106.211 91.0658 106.189C90.9972 106.388 90.9517 106.595 90.9302 106.806C90.9033 106.899 90.8714 106.99 90.8415 107.082C90.7372 107.404 90.9395 106.907 90.8283 107.127C90.7367 107.316 90.6344 107.499 90.5218 107.676C90.4729 107.751 90.2886 107.918 90.4393 107.802C90.6029 107.675 90.3536 107.893 90.3004 107.949C90.2321 108.021 90.1612 108.091 90.0877 108.158C90.0406 108.204 89.991 108.247 89.9389 108.287C89.9294 108.282 90.1895 108.113 90.0493 108.203C89.8711 108.317 89.7023 108.438 89.5145 108.537C89.4926 108.549 89.2525 108.66 89.2535 108.664C89.2431 108.623 89.5622 108.551 89.3432 108.622C89.2972 108.637 89.252 108.655 89.2062 108.67C89.0068 108.738 88.8032 108.792 88.5968 108.833C88.5496 108.842 88.4996 108.847 88.453 108.859C88.298 108.899 88.6012 108.835 88.6103 108.841C88.4957 108.836 88.381 108.846 88.269 108.871C88.0562 108.883 87.8428 108.883 87.63 108.871C87.5808 108.868 87.5316 108.863 87.4824 108.86C87.3681 108.854 87.2842 108.771 87.4363 108.861C87.5537 108.93 87.5439 108.879 87.44 108.86C87.3913 108.851 87.3425 108.844 87.2939 108.834C87.0832 108.795 86.8749 108.744 86.6699 108.682C86.5596 108.648 86.4514 108.609 86.3426 108.571C86.2952 108.557 86.249 108.539 86.2046 108.518C86.2039 108.505 86.4851 108.652 86.3367 108.572C86.1493 108.471 85.9555 108.386 85.7726 108.276C85.6749 108.217 85.5812 108.153 85.4862 108.09C85.4445 108.065 85.4048 108.037 85.3675 108.005C85.3706 107.992 85.6001 108.205 85.4797 108.09C85.3274 107.945 85.1644 107.815 85.0202 107.661C84.9872 107.625 84.956 107.588 84.9231 107.553L84.8913 107.516C84.8099 107.417 84.8084 107.418 84.8867 107.518C84.9662 107.541 84.9626 107.629 84.8872 107.515C84.8603 107.475 84.8317 107.436 84.8049 107.395C84.6831 107.222 84.5792 107.036 84.4949 106.842C84.5022 106.836 84.6248 107.202 84.531 106.926C84.5133 106.874 84.4934 106.822 84.476 106.77C84.4416 106.666 84.4112 106.561 84.385 106.454C84.3591 106.349 84.3458 106.241 84.3196 106.136C84.2755 105.959 84.3454 106.275 84.3374 106.267C84.3124 106.243 84.3231 106.089 84.3212 106.053C84.3092 105.817 84.336 105.589 84.3402 105.355C84.3435 105.174 84.3252 105.496 84.3214 105.487C84.3223 105.433 84.332 105.379 84.3499 105.327C84.3771 105.204 84.4023 105.081 84.4356 104.959C84.4736 104.819 84.5174 104.681 84.567 104.545C84.5855 104.494 84.6081 104.444 84.6254 104.392C84.6885 104.204 84.5004 104.62 84.6041 104.45C84.7468 104.216 84.8531 103.963 85.0046 103.732C85.0405 103.678 85.2588 103.373 85.143 103.527C85.0276 103.68 85.2615 103.39 85.3058 103.34C85.4898 103.135 85.7062 102.967 85.8967 102.771C86.0095 102.655 85.818 102.828 85.8067 102.836C85.8657 102.794 85.9234 102.75 85.9832 102.709C86.0873 102.637 86.194 102.57 86.3033 102.506C86.4263 102.434 86.5655 102.38 86.6847 102.303C86.8256 102.213 86.577 102.343 86.5725 102.346C86.6369 102.314 86.7042 102.288 86.7735 102.269C86.8896 102.228 87.3948 102.01 87.5007 102.078C87.4959 102.075 87.1172 102.109 87.4234 102.089C87.4957 102.084 87.5678 102.077 87.6403 102.074C87.7868 102.068 87.9329 102.072 88.0794 102.079C88.4764 102.077 88.8564 101.918 89.1371 101.637C89.4179 101.357 89.5768 100.976 89.5794 100.579C89.5709 100.184 89.4101 99.8077 89.1306 99.5282C88.8511 99.2487 88.4745 99.088 88.0794 99.0795V99.0795Z" fill="#1C325E"/>
<path d="M44.2529 177.861L45.5906 229.066L46.9283 280.271C47.0971 286.732 46.1844 295.544 52.738 299.329C55.4718 300.908 58.7405 301.254 61.8389 301.34C65.9519 301.454 70.0781 301.369 74.1926 301.374L125.443 301.429C132.176 301.436 139.572 301.239 144.397 295.816C148.424 291.289 149.565 285.013 149.969 279.156C150.502 271.427 150.246 263.602 150.315 255.858L150.545 230.124L150.775 204.391C150.845 196.573 151.215 188.692 150.872 180.879C150.61 174.918 149.603 168.552 145.606 163.868C141.053 158.531 133.854 157.811 127.288 157.601C110.307 157.057 93.3229 156.598 76.3404 156.097C72.4335 155.982 68.5152 155.772 64.6059 155.824C61.1295 155.757 57.6672 156.287 54.3703 157.392C48.8795 159.447 44.5904 164.379 44.7813 170.494C44.7937 171.775 45.0764 173.039 45.611 174.204C46.1457 175.368 46.9201 176.406 47.8837 177.25C49.3492 178.49 51.4816 176.378 50.005 175.129C46.0027 171.743 47.941 165.399 51.4396 162.394C56.5087 158.04 64.4556 158.747 70.6368 158.929L118.745 160.348C122.476 160.458 126.217 160.495 129.944 160.714C133.27 160.91 136.745 161.342 139.722 162.944C144.871 165.714 146.88 171.398 147.557 176.895C148.408 183.811 147.895 190.948 147.833 197.895L147.614 222.379L147.181 270.848C147.128 276.744 147.219 282.829 145.236 288.465C144.383 291.08 142.822 293.408 140.726 295.188C138.094 297.099 134.948 298.174 131.697 298.275C128.046 298.57 124.352 298.427 120.693 298.423L108.193 298.41L84.1925 298.384L71.6926 298.371C68.04 298.367 64.3609 298.495 60.7129 298.295C57.9131 298.141 54.7888 297.656 52.7259 295.574C50.4152 293.241 50.2007 289.638 50.0947 286.544C48.9901 254.325 48.408 222.078 47.5661 189.851L47.2528 177.861C47.2025 175.935 44.2023 175.927 44.2528 177.861L44.2529 177.861Z" fill="#1C325E"/>
<path d="M234.253 177.861L235.591 229.066L236.928 280.271C237.097 286.732 236.184 295.544 242.738 299.329C245.472 300.908 248.74 301.254 251.839 301.34C255.952 301.454 260.078 301.369 264.193 301.374L315.443 301.429C322.176 301.436 329.572 301.239 334.397 295.816C338.424 291.289 339.565 285.013 339.969 279.156C340.501 271.427 340.246 263.602 340.315 255.858L340.545 230.124L340.775 204.391C340.845 196.573 341.215 188.692 340.872 180.879C340.61 174.918 339.602 168.552 335.606 163.868C331.053 158.531 323.854 157.811 317.288 157.601C300.307 157.057 283.323 156.598 266.34 156.097C262.433 155.982 258.515 155.772 254.606 155.824C251.129 155.757 247.667 156.287 244.37 157.392C238.88 159.447 234.59 164.379 234.781 170.494C234.794 171.775 235.076 173.039 235.611 174.204C236.146 175.368 236.92 176.406 237.884 177.25C239.349 178.49 241.482 176.378 240.005 175.129C236.003 171.743 237.941 165.399 241.44 162.394C246.509 158.04 254.456 158.747 260.637 158.929L308.745 160.348C312.476 160.458 316.217 160.495 319.944 160.714C323.27 160.91 326.745 161.342 329.722 162.944C334.871 165.714 336.88 171.398 337.557 176.895C338.408 183.811 337.895 190.948 337.833 197.895L337.614 222.379L337.181 270.848C337.128 276.744 337.219 282.829 335.236 288.465C334.383 291.08 332.822 293.408 330.726 295.188C328.094 297.099 324.948 298.174 321.697 298.275C318.046 298.57 314.352 298.427 310.693 298.423L298.193 298.41L274.193 298.384L261.693 298.371C258.04 298.367 254.361 298.495 250.713 298.295C247.913 298.141 244.789 297.656 242.726 295.574C240.415 293.241 240.201 289.638 240.095 286.544C238.99 254.325 238.408 222.078 237.566 189.851L237.253 177.861C237.202 175.935 234.202 175.927 234.253 177.861L234.253 177.861Z" fill="#1C325E"/>
<path d="M96.0362 312.514C94.9875 311.504 93.6967 310.782 92.2881 310.415C90.8794 310.049 89.4001 310.051 87.9925 310.421C86.5938 310.805 85.2976 311.494 84.1972 312.439C83.0968 313.383 82.2196 314.56 81.6287 315.885C78.7944 321.921 81.3337 328.957 85.25 333.886C88.8891 338.466 94.8014 341.485 100.561 339.08C103.185 337.956 105.39 336.036 106.864 333.591C108.338 331.147 109.008 328.301 108.779 325.455C108.053 318.753 102.606 313.325 96.2102 311.688C94.3389 311.209 93.5406 314.101 95.4127 314.58C97.636 315.119 99.6941 316.193 101.408 317.708C103.122 319.223 104.44 321.134 105.247 323.274C105.955 325.369 105.985 327.633 105.334 329.745C104.683 331.858 103.383 333.711 101.619 335.043C92.6792 341.908 82.4541 328.783 83.4565 320.195C83.5635 318.928 83.9605 317.703 84.6168 316.613C85.2731 315.524 86.1711 314.601 87.2413 313.914C88.2834 313.301 89.4953 313.04 90.6974 313.17C91.8995 313.3 93.0278 313.814 93.9148 314.635C94.1992 314.901 94.5758 315.046 94.965 315.039C95.3542 315.033 95.7256 314.875 96.0008 314.6C96.2761 314.325 96.4336 313.953 96.4402 313.564C96.4468 313.175 96.3019 312.798 96.0361 312.514L96.0362 312.514Z" fill="#1C325E"/>
<path d="M279.313 208.399C275.812 207.195 271.748 205.999 268.125 207.411C264.708 208.742 262.826 212.002 262.456 215.541C262.043 219.486 263.72 223.25 265.499 226.666C267.638 230.775 269.844 234.851 272.018 238.942L279.537 253.092C279.708 253.368 279.964 253.582 280.266 253.702C280.569 253.821 280.902 253.84 281.216 253.755C281.53 253.67 281.809 253.486 282.01 253.23C282.211 252.974 282.324 252.66 282.332 252.334C281.907 247.59 282.66 242.814 284.524 238.43C286.447 233.999 289.589 230.257 291.823 225.997C293.879 222.075 295.249 217.575 294.16 213.154C293.279 209.579 290.679 206.1 286.932 205.268C285.039 204.789 283.036 205.001 281.285 205.866C279.534 206.731 278.149 208.192 277.379 209.987C276.671 211.784 279.571 212.563 280.272 210.785C281.27 208.251 284.763 207.475 287.091 208.444C290.124 209.708 291.563 213.333 291.559 216.414C291.554 220.627 289.396 224.476 287.206 227.936C284.995 231.431 282.67 234.81 281.2 238.705C279.578 243.055 278.94 247.709 279.332 252.334L282.127 251.577C277.245 242.389 272.094 233.294 267.485 223.966C265.712 220.379 264.118 215.541 266.835 211.963C269.621 208.294 274.939 210.062 278.515 211.292C280.345 211.921 281.13 209.024 279.312 208.399L279.313 208.399Z" fill="#1C325E"/>
<path d="M88.375 320.895L92.7924 329.463C92.9455 329.712 93.1673 329.911 93.4311 330.037C93.6949 330.162 93.9894 330.209 94.2792 330.171C94.569 330.133 94.8416 330.013 95.0642 329.823C95.2868 329.634 95.45 329.384 95.534 329.104C96.6848 323.173 99.4419 317.672 103.505 313.2C104.805 311.777 102.689 309.649 101.383 311.078C96.9508 315.915 93.9274 321.874 92.6412 328.307L95.3828 327.949L90.9654 319.381C90.0804 317.664 87.4908 319.18 88.375 320.895V320.895Z" fill="#3F3D56"/>
<path d="M138.482 281.342L103.578 312.17C103.382 312.344 103.126 312.435 102.863 312.426C102.601 312.417 102.352 312.307 102.168 312.12C101.984 311.933 101.879 311.682 101.875 311.42C101.87 311.157 101.966 310.903 102.144 310.709L134.665 275.202L138.482 281.342Z" fill="#1C325E"/>
<path d="M185.013 656.522H198.731L205.26 603.608H185.013V656.522Z" fill="#F3BBAA"/>
<path d="M177.772 680.291H187.61L189.366 671.003L193.864 680.291H219.957C221.207 680.291 222.425 679.891 223.433 679.15C224.44 678.409 225.184 677.365 225.557 676.171C225.929 674.977 225.91 673.695 225.502 672.513C225.094 671.33 224.319 670.309 223.289 669.599L202.453 655.208V645.818L180.536 647.126L177.772 680.291Z" fill="#1C325E"/>
<path d="M302.519 656.522H316.237L322.766 603.608H302.519V656.522Z" fill="#F3BBAA"/>
<path d="M295.278 680.291H305.116L306.872 671.003L311.37 680.291H337.462C338.713 680.291 339.931 679.891 340.939 679.15C341.946 678.409 342.69 677.365 343.062 676.171C343.435 674.977 343.416 673.695 343.008 672.513C342.6 671.33 341.825 670.309 340.795 669.599L319.958 655.208V645.818L298.042 647.126L295.278 680.291Z" fill="#1C325E"/>
<path d="M262.87 376.045L193.294 368.315C193.294 368.315 162.371 408.514 173.967 443.302V482.041L182.471 633.476L203.73 634.636L209.915 565.833L215.713 538.389L220.596 433.831L245.476 463.788L247.795 475.384L255.525 480.796L269.827 500.448L299.204 621.107L325.092 621.494C325.092 621.494 311.186 496.257 309.64 496.257C308.094 496.257 269.441 411.993 269.441 411.993V407.534L267.895 398.851C267.895 398.851 271.76 395.759 270.214 394.213C268.668 392.666 267.121 388.028 267.121 388.028L262.87 376.045Z" fill="#1C325E"/>
<path d="M237.745 268.203L251.66 283.664L270.987 290.622L260.164 354.013L263.754 372.242L269.054 392.28C248.63 403.578 224.369 387.975 202.081 381.045L180.152 390.734L181.311 364.063L181.906 296.865C181.929 294.284 182.482 291.735 183.531 289.377C184.58 287.019 186.102 284.901 188.004 283.156C189.905 281.411 192.145 280.075 194.585 279.231C197.024 278.388 199.61 278.055 202.184 278.253L216.872 267.43L237.745 268.203Z" fill="#3366CC"/>
<path d="M111.513 296.56C111.622 297.707 111.982 298.816 112.567 299.809C113.152 300.802 113.947 301.655 114.897 302.307C115.847 302.959 116.929 303.395 118.065 303.584C119.202 303.773 120.366 303.711 121.476 303.401L137.43 326.425L142.853 312.917L126.872 293.125C126.229 291.295 124.936 289.764 123.239 288.823C121.543 287.883 119.56 287.597 117.667 288.02C115.773 288.444 114.101 289.547 112.967 291.121C111.833 292.695 111.315 294.63 111.513 296.56V296.56Z" fill="#F3BBAA"/>
<path d="M195.043 278.583C195.043 278.583 174.278 277.662 176.603 318.929L167.77 337.057L150.002 320.475L149.922 315.197L134.896 298.402L122.835 311.735L130.863 324.01L132.411 330.865L137.3 333.851L150.058 353.357L155.96 359.165C155.96 359.165 163.446 366.626 171.914 365.502C174.173 365.208 176.372 364.561 178.43 363.585C182.459 361.668 186.438 358.23 189.784 352.41C196.796 340.39 203.083 327.962 208.61 315.192L195.043 278.583Z" fill="#3366CC"/>
<path d="M285.947 231.994C285.63 233.102 285.56 234.266 285.741 235.404C285.923 236.542 286.352 237.626 286.997 238.581C287.643 239.535 288.49 240.336 289.479 240.927C290.468 241.519 291.575 241.886 292.721 242.004L299.156 269.265L309.142 258.674L301.5 234.411C301.57 232.472 300.926 230.575 299.69 229.079C298.455 227.583 296.714 226.592 294.797 226.294C292.88 225.997 290.92 226.412 289.289 227.463C287.658 228.513 286.469 230.126 285.947 231.994V231.994Z" fill="#F3BBAA"/>
<path d="M241.755 286.947C241.755 286.947 252.735 269.298 285.46 294.545L305.407 297.506L301.773 273.476L297.465 270.426L292.106 248.538L309.922 246.126L315.508 259.687L320.288 264.839L319.987 270.561L328.865 292.111L330.32 300.263C330.32 300.263 332.242 310.656 326.528 317.005C325.008 318.702 323.232 320.151 321.263 321.297C317.404 323.536 312.318 324.875 305.626 324.345C291.748 323.334 277.942 321.494 264.283 318.834L241.755 286.947Z" fill="#3366CC"/>
<path d="M240.205 261.757C253.182 254.664 257.951 238.394 250.857 225.417C243.764 212.44 227.494 207.671 214.517 214.765C201.54 221.858 196.771 238.128 203.865 251.105C210.958 264.082 227.229 268.851 240.205 261.757Z" fill="#F3BBAA"/>
<path d="M262.594 229.022C262.514 229.052 262.444 229.082 262.364 229.112C262.211 229.179 262.054 229.235 261.894 229.282C260.871 229.654 259.806 229.896 258.724 230.002C258.262 230.05 257.798 230.074 257.334 230.072C256.738 230.072 256.144 230.032 255.554 229.952C254.897 229.869 254.249 229.736 253.614 229.552C253.312 229.47 253.015 229.373 252.724 229.262C250.738 228.55 248.944 227.388 247.483 225.867C246.022 224.345 244.933 222.505 244.304 220.492V220.482C244.236 220.285 244.18 220.084 244.134 219.882C243.839 218.755 243.691 217.596 243.694 216.432V216.412C243.693 213.573 244.585 210.806 246.244 208.502C247.244 207.092 248.395 206.858 247.754 205.242C245.707 200.084 254.145 195.894 259.114 198.172C259.293 198.155 259.473 198.148 259.654 198.152C263.004 198.152 264.234 203.102 266.224 205.892L266.166 205.91C265.66 206.086 265.221 206.416 264.911 206.853C264.602 207.29 264.436 207.813 264.439 208.349C264.441 208.885 264.611 209.407 264.924 209.841C265.237 210.276 265.678 210.602 266.186 210.774C267.515 211.21 268.857 211.596 270.214 211.932C274.677 217.23 269.506 232.684 262.594 229.022Z" fill="#1C325E"/>
<path d="M260.093 243.192C258.603 248.822 255.863 254.312 251.333 257.962C246.793 261.612 225.463 270.232 223.683 262.802C224.873 267.992 224.143 269.972 222.203 271.822C221.873 271.372 221.523 270.942 221.163 270.522C219.837 268.986 218.245 267.702 216.463 266.732C216.409 269.865 216.627 272.996 217.113 276.092C216.314 276.825 215.553 277.6 214.833 278.412C211.413 268.132 203.891 255.81 209.383 246.472C211.563 242.765 209.755 242.253 207.833 241.822C204.479 241.069 202.663 227.292 201.873 223.942C200.893 219.742 200.513 214.912 203.123 211.472C205.733 208.032 212.313 207.902 213.633 212.012L216.413 208.252C220.013 200.382 229.513 201.982 238.103 203.022C246.693 204.052 254.263 210.112 258.113 217.862C261.953 225.612 262.303 234.822 260.093 243.192Z" fill="#1C325E"/>
<path d="M246.639 207.166C246.444 211.917 247.65 216.62 250.107 220.691C252.564 224.762 256.162 228.021 260.456 230.063C262.2 230.859 263.726 228.274 261.97 227.473C258.134 225.691 254.913 222.81 252.718 219.194C250.522 215.579 249.45 211.392 249.639 207.166C249.744 205.237 246.743 205.243 246.639 207.166Z" fill="#AC6600"/>
<path d="M128.897 662.266C128.363 662.29 127.835 662.15 127.384 661.865C126.932 661.579 126.58 661.161 126.374 660.668C126.167 660.175 126.118 659.631 126.232 659.109C126.345 658.587 126.616 658.112 127.009 657.75L127.187 657.04C127.164 656.983 127.14 656.926 127.116 656.87C124.718 651.15 109.41 667.095 108.749 672.471C108.457 674.847 108.58 677.256 109.112 679.59C104.154 668.774 101.579 657.019 101.563 645.121C101.562 642.135 101.727 639.152 102.059 636.184C102.334 633.752 102.715 631.337 103.202 628.939C105.859 615.929 111.565 603.734 119.85 593.357C124.589 593.622 128.742 592.9 129.143 583.717C129.214 582.083 130.426 580.669 130.693 579.059C130.24 579.119 129.78 579.156 129.328 579.185C129.187 579.193 129.039 579.2 128.898 579.208L128.845 579.21C128.348 579.232 127.855 579.11 127.425 578.859C126.995 578.608 126.648 578.237 126.424 577.793C126.2 577.349 126.109 576.849 126.162 576.354C126.216 575.859 126.411 575.391 126.724 575.004C126.92 574.764 127.115 574.524 127.311 574.283C127.607 573.913 127.912 573.549 128.208 573.178C128.242 573.143 128.275 573.106 128.305 573.067C128.646 572.644 128.987 572.229 129.328 571.806C128.705 570.84 127.868 570.03 126.881 569.441C123.462 567.438 118.745 568.825 116.276 571.918C113.799 575.01 113.332 579.349 114.192 583.212C115.038 586.5 116.437 589.62 118.33 592.438C118.145 592.675 117.952 592.905 117.766 593.142C114.377 597.5 111.423 602.18 108.947 607.114C109.648 601.641 101.081 581.878 97.7675 577.692C93.7879 572.664 85.6274 574.858 84.9263 581.232C84.9195 581.294 84.9129 581.356 84.9064 581.418C85.3985 581.695 85.8802 581.99 86.3515 582.301C86.9436 582.697 87.4024 583.262 87.6678 583.923C87.9332 584.584 87.9928 585.31 87.8387 586.005C87.6847 586.7 87.3242 587.333 86.8046 587.819C86.2849 588.306 85.6303 588.625 84.9265 588.733L84.8545 588.744C78.2673 598.15 99.3842 622.629 104.67 617.133C102.182 624.183 100.621 631.527 100.027 638.98C99.6912 643.377 99.7111 647.794 100.087 652.188L100.065 652.032C98.8902 642.463 78.7421 628.234 72.8586 629.419C69.4692 630.102 66.1309 629.947 66.6455 633.366C66.6537 633.42 66.6621 633.475 66.6706 633.529C67.5838 633.901 68.473 634.33 69.3329 634.812C69.825 635.09 70.3067 635.385 70.778 635.696C71.3701 636.092 71.8289 636.657 72.0943 637.318C72.3597 637.979 72.4192 638.704 72.2652 639.4C72.1112 640.095 71.7507 640.727 71.2311 641.214C70.7114 641.701 70.0568 642.02 69.353 642.128L69.2809 642.139C69.229 642.147 69.1845 642.154 69.1326 642.162C66.1342 652.479 88.3705 669.129 101.889 663.831H101.896C103.236 669.653 105.177 675.319 107.688 680.739H128.379C128.453 680.51 128.52 680.272 128.586 680.042C126.671 680.163 124.748 680.048 122.861 679.701C124.396 677.818 125.931 675.919 127.467 674.035C127.501 674 127.533 673.963 127.563 673.924C128.342 672.96 129.128 672.003 129.906 671.039L129.907 671.038C129.948 668.083 129.609 665.135 128.898 662.266L128.897 662.266ZM105.204 615.657L105.215 615.642L105.204 615.672V615.657ZM100.621 656.971L100.443 656.571C100.45 656.282 100.45 655.992 100.443 655.696C100.443 655.614 100.428 655.533 100.428 655.451C100.495 655.963 100.554 656.474 100.628 656.986L100.621 656.971Z" fill="#3366CC"/>
<path d="M358.872 680.242H66.7534V682.242H358.872V680.242Z" fill="#CCCCCC"/>
</svg>
