<svg width="42" height="42" viewBox="0 0 42 42" fill="none" xmlns="http://www.w3.org/2000/svg">
<ellipse cx="21" cy="20.9933" rx="21" ry="20.9933" fill="white"/>
<ellipse cx="21" cy="20.9933" rx="21" ry="20.9933" fill="#00AF89"/>
<path d="M28.301 39.2432C28.301 39.2432 31.0833 36.9211 31.1956 36.7347C31.3079 36.5483 32.202 35.7469 32.6353 35.0065C32.9661 34.4412 32.8225 34.0929 32.7488 33.8718C32.5785 33.3611 31.8974 32.8504 31.2731 33.0774C30.6488 33.3044 30.592 33.5313 30.3082 33.9285C30.0245 34.3257 29.1163 35.3277 29.0596 35.4037C29.0028 35.4797 26.9028 37.1745 26.9028 37.1745L28.301 39.2432Z" fill="#EAECF0" stroke="#2A4B8D" stroke-width="0.75"/>
<path d="M28.301 39.2432C28.301 39.2432 31.0833 36.9211 31.1956 36.7347C31.3079 36.5483 32.202 35.7469 32.6353 35.0065C32.9661 34.4412 32.8225 34.0929 32.7488 33.8718C32.5785 33.3611 31.8974 32.8504 31.2731 33.0774C30.6488 33.3044 30.592 33.5313 30.3082 33.9285C30.0245 34.3257 29.1163 35.3277 29.0596 35.4037C29.0028 35.4797 26.9028 37.1745 26.9028 37.1745L28.301 39.2432Z" fill="#2A4B8D" fill-opacity="0.1" stroke="#2A4B8D" stroke-width="0.75"/>
<path d="M27.8111 40.8573C27.8111 40.8573 24.2926 42.1109 20.8868 41.9921C17.4809 41.8732 15.8349 41.5895 13.2241 40.5114L13.6894 37.4691C14.0772 35.213 16.2261 33.5491 18.7519 33.5491H22.4541C24.9798 33.5491 27.1287 35.213 27.5165 37.4691L27.8111 40.8573Z" fill="#EAECF0"/>
<path d="M27.1296 41.022C27.1296 41.1902 23.4308 42.0445 21.4391 41.9827C18.3093 42.0445 15.0404 41.3057 14.9836 41.1355C14.9269 40.9653 15.0089 39.423 15.0089 39.423C15.3567 36.9804 17.0363 35.178 19.3006 35.178H22.6197C24.884 35.178 26.6683 37.0495 27.0161 39.4921C27.0161 39.4921 27.1296 40.6761 27.1296 41.022Z" fill="#2A4B8D" fill-opacity="0.1"/>
<path d="M22.8889 33.9724C25.2093 33.9724 27.1863 35.6883 27.5087 37.9331L27.6971 39.4331L27.8106 40.8516C28.0459 40.7649 28.462 40.6176 28.4349 40.6246C28.4079 40.6316 28.7032 40.5228 28.8889 40.4544L28.889 40.4544L28.4473 37.7874C28.0185 35.0256 25.6808 33.0216 22.8889 33.0216H19.1668C16.3747 33.0216 14.0371 35.0256 13.6084 37.7874L13.1106 40.4544L14.1322 40.8516L14.5471 37.9331C14.9032 35.6387 16.8462 33.9724 19.1668 33.9724H22.8889Z" fill="#2A4B8D"/>
<path d="M16.3505 32.5681H25.7597C27.1702 32.5681 28.5341 32.043 29.5692 31.0844C32.0538 28.7849 33.6082 25.4926 33.5999 21.8358C33.585 14.9263 27.8902 9.26913 20.9894 9.30541C14.0929 9.34169 8.51343 14.9505 8.51343 21.8637C8.51343 25.5482 10.0987 28.8603 12.6229 31.1569C13.6388 32.0813 14.9777 32.5681 16.3505 32.5681Z" fill="#EAECF0"/>
<path d="M16.819 32.5681H25.292C26.5619 32.5681 27.7892 32.1147 28.7224 31.287C30.959 29.3017 32.3588 26.4593 32.3514 23.3024C32.3375 17.3363 27.2103 12.452 20.9961 12.4827C14.7863 12.5144 9.76221 17.3568 9.76221 23.3266C9.76221 26.5072 11.1897 29.3668 13.4625 31.3496C14.3773 32.1478 15.5829 32.5681 16.819 32.5681Z" fill="#3366CC" fill-opacity="0.1"/>
<path d="M21.0558 9.73236H20.9918C14.3462 9.76683 8.93954 15.2098 8.93954 21.8646C8.93954 25.2746 10.3865 28.5468 12.9094 30.8426C13.8296 31.6798 15.05 32.141 16.3455 32.141H25.7652C27.0786 32.141 28.3269 31.6549 29.2804 30.7724C31.7621 28.4753 33.1816 25.2188 33.1742 21.8376C33.1593 15.1624 27.7232 9.73236 21.0558 9.73236ZM25.7652 33.022H16.3455C14.8306 33.022 13.4001 32.4796 12.3175 31.4946C9.6117 29.0323 8.05957 25.5223 8.05957 21.8646C8.05957 14.7265 13.859 8.88853 20.9873 8.85128H21.0558C28.2079 8.85128 34.0383 14.6762 34.0541 21.8357C34.0625 25.4625 32.5398 28.9555 29.8785 31.4194C28.7613 32.4528 27.3009 33.022 25.7652 33.022Z" fill="#2A4B8D"/>
<path d="M15.6803 17.7867C13.5845 17.7867 11.8794 19.5111 11.8794 21.6309V21.7176C11.8794 23.8372 13.5845 25.5617 15.6803 25.5617H26.3197C28.4152 25.5617 30.1204 23.8372 30.1204 21.7176V21.6309C30.1204 19.5111 28.4152 17.7867 26.3197 17.7867H15.6803ZM26.3197 26.4402H15.6803C13.1055 26.4402 11.0107 24.3216 11.0107 21.7176V21.6309C11.0107 19.0267 13.1055 16.9081 15.6803 16.9081H26.3197C28.8946 16.9081 30.9891 19.0267 30.9891 21.6309V21.7176C30.9891 24.3216 28.8946 26.4402 26.3197 26.4402Z" fill="#2A4B8D"/>
<path d="M17.9353 22.582C17.7479 22.5813 17.5967 22.4292 17.5974 22.2424C17.5995 21.5535 17.0403 20.9913 16.3502 20.9889C15.6604 20.9866 15.0969 21.5451 15.0948 22.2337C15.0941 22.4208 14.9417 22.5717 14.7544 22.5713C14.567 22.5706 14.4156 22.4184 14.4163 22.2314C14.42 21.1694 15.2887 20.308 16.3526 20.3118C17.4164 20.3153 18.2792 21.1823 18.2757 22.2445C18.275 22.4315 18.1228 22.5827 17.9353 22.582Z" fill="black"/>
<path d="M27.2434 22.582C27.056 22.5813 26.9048 22.4292 26.9055 22.2424C26.9076 21.5535 26.3484 20.9913 25.6583 20.9889C24.9685 20.9866 24.405 21.5451 24.4029 22.2337C24.4022 22.4208 24.2498 22.5717 24.0625 22.5713C23.8751 22.5706 23.7237 22.4184 23.7244 22.2314C23.7281 21.1694 24.5968 20.308 25.6607 20.3118C26.7245 20.3153 27.5873 21.1823 27.5838 22.2445C27.5831 22.4315 27.4309 22.5827 27.2434 22.582Z" fill="#21201F"/>
<path d="M19.0703 27.9147C19.0703 29.0824 19.9392 30.0291 21.0109 30.0291C22.0827 30.0291 22.9517 29.0824 22.9517 27.9147H19.0703Z" fill="#21201F"/>
</svg>
