<svg width="576" height="536" viewBox="0 0 576 536" fill="none" xmlns="http://www.w3.org/2000/svg">
<path d="M312.607 228.402C312.607 228.402 293.775 65.9719 314.048 47.3859C334.318 28.8 510.341 31.675 516.064 38.8156C526.013 51.2258 550.599 226.429 528.451 234.089C506.314 241.753 321.416 248.499 312.607 228.402Z" fill="#AEC2EA"/>
<path d="M484.708 196.3L473.313 187.843L486.364 133.679L503.56 139.218L484.708 196.3Z" fill="#3864BC"/>
<path d="M557.001 107.108L529.7 191.733C528.204 188.316 525.435 184.73 521.958 179.694C517.145 172.741 491.153 160.347 483.708 157.929L471.517 154.03C470.864 153.808 470.235 153.585 469.614 153.316C440.411 141.761 456.853 97.2179 486.958 106.292L488.614 106.812L497.825 109.823C505.642 112.312 534.399 117.593 542.638 114.39C549.466 111.765 553.993 110.066 557.001 107.108Z" fill="#3864BC"/>
<path d="M569.134 158.913C559.755 187.96 544.165 208.89 534.326 205.73C526.333 203.151 524.548 185.507 529.197 163.421C530.298 158.269 531.685 152.925 533.466 147.437C535.15 142.198 537.052 137.187 539.103 132.573C548.294 111.609 560.212 98.0343 568.259 100.628C578.099 103.788 578.505 129.866 569.134 158.913Z" fill="#DEE7F7"/>
<path d="M558.845 155.941C556.067 164.534 543.985 168.343 531.86 164.445C530.942 164.14 530.04 163.8 529.196 163.421C530.298 158.269 531.685 152.925 533.466 147.437C535.149 142.198 537.052 137.187 539.103 132.573C540.056 132.773 540.989 133.011 541.907 133.308C554.032 137.206 561.618 147.343 558.845 155.941Z" fill="white"/>
<path d="M488.614 106.812C481.79 112.136 468.153 125.441 469.614 153.316C440.411 141.761 456.853 97.2179 486.958 106.292L488.614 106.812Z" fill="#DEE7F7"/>
<path d="M446.22 229.921C439.271 236.667 432.63 232.835 432.63 232.835C432.63 232.835 409.126 269.546 396.736 270.265C389.193 270.71 380.532 252.941 373.845 235.437C351.845 195.745 363.482 127.23 387.794 111.632C395.224 106.87 398.548 100.472 404.212 101.601C426.7 106.116 444.646 188.398 446.22 229.921Z" fill="#F8F9FA"/>
<path d="M438.138 96.1009C436.872 97.8939 430.142 106.449 427.38 105.913C425.169 105.472 421.083 101.66 420.607 100.687C418.966 97.5462 420.107 105.64 413.036 107.753C405.958 109.898 403.74 104.382 404.212 101.601C404.759 98.3743 410.919 95.4173 405.997 90.1908C401.072 84.9564 402.411 74.4603 402.411 74.4603C402.65 73.7415 411.904 74.0814 421.447 75.2884C427.923 76.1126 434.576 77.3353 438.611 78.8939C441.263 79.929 441.189 85.1947 441.431 86.0853C442.786 90.9915 439.576 94.0892 438.138 96.1009Z" fill="#F9CBC0"/>
<path d="M417.189 86.097C414.079 87.929 410.29 89.4954 405.997 90.1908C401.072 84.9564 402.411 74.4603 402.411 74.4603C402.65 73.7415 411.904 74.0814 421.447 75.2884C424.783 76.7572 427.115 77.9212 427.115 77.9212C427.115 77.9212 425.599 79.7962 422.872 82.0892C420.622 79.7025 415.247 74.8587 417.189 86.097Z" fill="#AC6600"/>
<path d="M402.411 74.4602C402.411 74.4602 405.942 56.7844 421.755 63.2883C441.966 57.5032 450.849 64.6946 443.415 69.011C448.931 71.4875 451.86 83.3782 439.048 79.7297C429.817 78.6243 422.872 82.0891 422.872 82.0891L421.446 75.2883L402.411 74.4602Z" fill="#AC6600"/>
<path d="M453.462 202.491C454.556 202.054 455.646 201.585 456.74 201.113C434.142 211.062 410.208 214.784 410.298 203.738C410.458 186.531 443.736 184.144 435.583 189.874C443.439 188.281 450.568 186.984 457.161 185.988C455.861 186.183 454.556 186.39 453.208 186.605C451.966 192.304 452.099 197.597 453.462 202.491Z" fill="#F8F9FA"/>
<path d="M479.962 187.96C479.606 188.234 479.251 188.488 478.88 188.745C478.532 188.999 478.169 189.249 477.794 189.503C476.696 190.273 475.544 191.031 474.388 191.773C473.989 192.031 473.61 192.269 473.212 192.499C472.95 192.683 472.649 192.863 472.368 193.031C472.04 193.226 471.716 193.417 471.384 193.624C470.095 194.39 468.771 195.136 467.423 195.87C466.298 196.472 465.165 197.085 464.009 197.671C461.716 198.816 459.368 199.941 457.021 200.988C456.919 201.023 456.829 201.062 456.739 201.113C455.646 201.585 454.556 202.054 453.462 202.491C452.099 197.597 451.966 192.304 453.208 186.605C456.599 186.042 459.841 185.566 462.958 185.187C464.81 184.945 466.622 184.738 468.399 184.581C469.2 184.484 469.997 184.417 470.782 184.359C473.13 184.152 475.396 184.031 477.614 183.948C476.927 185.663 480.302 187.374 479.962 187.96Z" fill="#F9CBC0"/>
<path d="M472.619 183.593C472.619 183.593 474.396 172.925 478.142 173.503C502.392 177.226 484.708 196.3 484.708 196.3C484.708 196.3 469.4 191.8 467.001 189.175C464.603 186.546 471.583 187.292 472.619 183.593Z" fill="#F9CBC0"/>
<path d="M492.657 451.402C490.216 455.124 463.571 457.28 433.06 458.015C394.278 458.964 349.255 457.612 339.911 454.308C339.04 454.003 338.47 453.691 338.255 453.343C325.915 433.757 315.743 241.48 328.239 222.359C340.646 203.374 497.618 221.788 508.431 244.534C517.677 264.046 508.232 427.558 492.657 451.402Z" fill="#EAF3FF"/>
<path d="M381.22 400.425C380.493 414.089 378.392 425.351 374.704 431.808C374.653 431.933 374.595 432.023 374.548 432.105C372.552 435.484 366.325 438.538 357.243 441.222C354.786 441.949 352.118 442.659 349.271 443.335C347.864 443.675 346.427 443.995 344.946 444.308C340.032 445.343 334.673 446.324 328.978 447.206C328.818 447.249 328.661 447.265 328.497 447.281C327.907 447.39 327.306 447.48 326.7 447.562C323.368 448.081 319.919 448.562 316.396 449.007C315.419 449.132 307.157 449.398 295.786 449.734C295.001 449.749 294.196 449.769 293.38 449.808C283.571 450.074 271.81 450.386 260.489 450.691H260.47C259.794 450.71 259.114 450.726 258.435 450.726C257.302 450.765 256.177 450.8 255.064 450.831C250.587 450.964 246.247 451.066 242.208 451.171C228.646 451.542 218.376 451.867 217.232 451.972L219.778 535.351C219.778 535.351 184.986 510.523 163.837 455.902C147.107 448.363 123.372 456.234 116.778 448.257C104.126 432.882 124.919 311.109 134.587 287.14C136.556 282.253 272.482 275.538 329.208 283.3C340.728 284.886 350.587 287.39 357.65 291.136C363.224 294.07 367.071 297.734 368.634 302.316C374.653 319.804 378.872 343.617 380.618 366.413C381.544 378.386 381.775 390.077 381.22 400.425Z" fill="#DEE7F7"/>
<path d="M331.103 221.101C329.845 242.331 327.396 263.14 323.79 277.206C321.864 284.753 319.587 290.363 316.966 293.046C314.907 295.16 295.142 296.613 270.017 297.413C265.63 297.554 261.091 297.675 256.45 297.777C252.423 297.874 248.314 297.941 244.169 298.007C241.4 298.046 238.611 298.081 235.818 298.097C214.728 298.296 193.587 298.113 178.087 297.554C176.583 297.488 175.146 297.445 173.763 297.37C162.415 296.882 131.915 294.695 131.021 293.73C118.88 280.644 128.29 163.066 140.978 150.046C153.575 137.105 316.677 124.863 327.224 140.093C331.993 146.988 333.275 184.663 331.103 221.101Z" fill="#C8CCD1"/>
<path d="M297.654 154.734C297.134 155.081 295.896 155.409 294.001 155.749C289.626 156.534 281.818 157.277 271.693 157.964C269.079 158.136 266.31 158.308 263.4 158.468C262.357 158.53 261.298 158.589 260.208 158.655C251.771 159.128 242.333 159.558 232.287 159.96C228.306 160.109 224.247 160.257 220.119 160.405C217.513 160.48 214.869 160.573 212.212 160.655C156.716 162.413 92.3568 162.925 79.0756 161.132C77.8334 160.976 77.0248 160.788 76.7436 160.581C59.6225 148.714 50.3842 28.8742 68.7865 16.5578C87.0482 4.31947 291.826 8.47963 306.638 22.3781C319.333 34.2921 320.599 139.366 297.654 154.734Z" fill="#DEE7F7"/>
<path d="M344.947 444.308C340.032 445.343 334.673 446.323 328.978 447.206C328.818 447.249 328.661 447.265 328.497 447.281C327.907 447.39 327.306 447.48 326.7 447.562L325.388 433.445C325.388 433.445 326.005 432.288 326.81 430.347C329.779 423.097 335.154 404.882 319.423 394.894C318.654 394.406 317.853 393.933 316.982 393.488C293.505 381.425 299.575 338.234 299.575 338.234C299.575 338.234 299.591 338.234 299.634 338.241C299.681 338.241 299.732 338.257 299.79 338.284C299.837 338.284 299.911 338.3 299.962 338.316C300.466 338.441 301.411 338.671 302.708 339.116C312.997 342.562 345.474 357.796 350.818 413.695C351.958 425.64 349.025 435.995 344.947 444.308Z" fill="#A2A9B1"/>
<path d="M295.786 449.734C295.001 449.749 294.196 449.769 293.38 449.808C283.571 450.073 271.81 450.386 260.489 450.691H260.47C259.794 450.71 259.114 450.726 258.435 450.726C258.493 449.519 258.567 448.316 258.634 447.101V447.093C258.989 442.343 259.61 437.581 260.661 432.8L293.075 440.156L293.595 440.281C293.595 440.281 294.661 443.675 295.786 449.734Z" fill="#3D3542"/>
<path d="M299.903 327.55C296.935 329.886 299.044 339.308 299.044 339.308C299.044 339.308 284.439 342.117 280.032 339.16C279.931 336.105 282.802 330.937 280.693 329.011C276.028 328.499 268.368 328.706 266.626 324.171C264.236 317.988 266.087 307.402 266.087 307.402C266.087 307.402 273.896 300.179 274.778 295.152C276.333 286.398 281.353 284.515 298.021 297.472C313.974 309.863 305.04 323.554 299.903 327.55Z" fill="#F3BBAA"/>
<path d="M328.497 447.281C327.907 447.39 327.306 447.48 326.7 447.562C323.368 448.081 319.919 448.562 316.396 449.007C315.419 449.132 307.157 449.398 295.786 449.734C295.001 449.749 294.196 449.769 293.38 449.808L293.075 440.156L292.884 434.007L325.388 433.445C325.388 433.445 326.899 438.628 328.497 447.281Z" fill="#3D3542"/>
<path d="M328.978 447.206C328.818 447.249 328.661 447.265 328.497 447.281C327.908 447.39 327.306 447.48 326.701 447.562C323.368 448.081 319.919 448.562 316.396 449.007C315.419 449.132 307.158 449.398 295.786 449.734C295.001 449.749 294.197 449.769 293.38 449.808C283.572 450.073 271.81 450.386 260.49 450.691H260.47C259.794 450.71 259.115 450.726 258.435 450.726C257.302 450.765 256.177 450.8 255.064 450.831C253.865 447.421 253.74 442.128 254.185 436.12V436.101C255.111 423.577 258.435 407.921 259.454 399.64C259.669 398.542 259.329 397.452 258.833 396.37C258.107 394.702 257.033 393.027 257.247 391.292C257.923 387.652 258.568 385.101 258.923 384.413C258.568 384.464 258.204 384.495 257.849 384.554C258.314 378.281 258.634 372.663 258.587 367.191L271.95 359.073L278.318 340.538C278.486 340.538 279.517 338.995 280.064 338.257C280.079 338.257 280.079 338.241 280.079 338.241V338.195C280.189 338.034 280.263 337.913 280.294 337.855C280.314 337.839 280.314 337.839 280.314 337.839C280.314 337.839 282.935 341.62 298.814 338.144C298.845 338.144 298.896 338.144 298.939 338.128C299.146 338.144 299.361 338.195 299.575 338.234C299.575 338.234 299.591 338.234 299.634 338.241C299.681 338.241 299.732 338.257 299.79 338.284C299.837 338.284 299.911 338.3 299.962 338.316C300.931 338.464 301.857 338.706 302.708 339.116C318.548 346.491 319.083 391.003 317.29 387.718C317.802 388.948 318.548 391.484 319.423 394.894C321.665 403.659 324.74 418.128 326.81 430.347C327.943 437.077 328.771 443.136 328.978 447.206Z" fill="#A2A9B1"/>
<path d="M299.904 327.55C280.693 329.011 269.587 303.3 269.587 303.3C269.587 303.3 268.997 298.402 269.876 293.367C271.439 284.613 285.423 282.23 302.22 294.992C320.111 308.577 305.04 323.554 299.904 327.55Z" fill="#1C325E"/>
<path d="M273.853 311.507C273.853 311.507 291.005 302.433 279.04 320.241C273.962 314.956 273.853 311.507 273.853 311.507Z" fill="#F3BBAA"/>
<path d="M280.314 337.839L280.154 339.226L275.318 383.769C275.318 383.769 265.88 387.253 258.833 396.37C252.517 404.546 248.099 417.269 254.185 436.101V436.12C255.31 439.57 256.767 443.21 258.634 447.093V447.101C259.224 448.273 259.826 449.472 260.47 450.691C259.794 450.71 259.115 450.726 258.435 450.726C257.302 450.765 256.177 450.8 255.064 450.831C250.587 450.964 246.248 451.066 242.208 451.171C235.619 441.933 229.357 430.808 228.232 420.663C222.759 370.503 276.326 340.042 280.107 337.96H280.123C280.228 337.886 280.279 337.855 280.294 337.855C280.314 337.839 280.314 337.839 280.314 337.839Z" fill="#A2A9B1"/>
<path d="M176.642 420.597C176.642 420.597 176.634 420.597 176.634 420.613C174.947 423.378 172.439 426.523 168.751 429.835C166.775 431.613 162.466 432.816 156.611 433.585C150.158 434.452 141.806 434.773 132.603 434.741C128.169 434.714 123.513 434.616 118.79 434.452C113.255 434.253 107.615 433.98 102.025 433.644C98.5364 433.437 95.0521 433.195 91.6614 432.948C87.056 432.601 82.5989 432.238 78.3802 431.874C77.7943 431.823 77.22 431.777 76.6693 431.726C65.7005 430.726 56.6107 429.695 51.5325 429.011C49.7044 428.745 48.3997 428.531 47.72 428.39C42.2864 427.167 39.888 418.902 38.8646 413.378C38.8372 413.238 38.8294 413.116 38.806 412.991C38.6146 411.812 38.4583 410.581 38.2825 409.308V409.226C38.2669 409.175 38.2591 409.12 38.2591 409.07C38.2591 409.019 38.2591 408.98 38.2435 408.937C38.2161 408.749 38.1927 408.558 38.1693 408.359C33.7943 373.046 34.8255 305.183 43.306 297.14C54.138 286.859 182.025 303.48 190.064 316.816C195.755 326.269 187.427 391.195 176.642 420.597Z" fill="#AEC2EA"/>
<path d="M253.798 158.656C244.591 159.128 234.286 159.558 223.321 159.96L227.239 107.523L228.728 87.7376L229.466 77.9798L231.005 57.4602L231.071 56.6282L231.079 56.4681L231.118 56.0071C231.524 55.8743 231.911 55.7337 232.325 55.6009C232.724 55.4876 233.13 55.386 233.524 55.2962C233.524 55.2884 233.544 55.2884 233.544 55.2884C233.591 55.2727 233.649 55.2649 233.708 55.2571C236.286 54.6517 238.903 54.5032 241.442 54.6946C241.946 54.7181 242.45 54.7688 242.954 54.8274C247.204 55.2962 251.251 56.5774 254.642 58.0227C255.146 58.2298 255.591 58.4446 256.036 58.6243C256.384 60.4642 256.907 63.2727 257.544 66.929C257.56 67.097 257.595 67.2532 257.626 67.4173C258.47 72.3977 259.493 78.929 260.544 86.8235L260.563 86.9212C261.743 95.7063 262.935 106.152 263.97 118.015C265.013 129.964 265.872 143.374 266.345 157.964C263.481 158.136 260.462 158.308 257.286 158.468C256.146 158.531 254.989 158.589 253.798 158.656Z" fill="#FEE7E6"/>
<path d="M257.286 158.468C256.146 158.531 254.989 158.589 253.798 158.656C244.591 159.128 234.286 159.558 223.321 159.96C218.985 160.109 214.544 160.257 210.044 160.406C211.478 151.39 213.099 140.531 211.817 128.355C211.692 127.198 211.583 126.058 211.485 124.945C210.552 114.738 209.903 105.913 210.864 98.4407C212.454 85.9211 216.372 77.179 220.509 70.7532C224.454 64.6204 228.571 60.6125 231.005 57.4602C231.126 57.2961 231.267 57.1204 231.376 56.9641C231.591 56.675 231.79 56.3938 231.97 56.1047C231.739 56.2454 231.466 56.3938 231.153 56.5774C231.126 56.593 231.103 56.6165 231.071 56.6282C229.052 57.8 225.571 59.929 219.54 63.8665C222.981 59.8313 226.825 57.3625 230.829 56.0227C230.931 55.9836 231.021 55.9563 231.118 55.925C231.524 55.8 231.911 55.6594 232.325 55.5383C232.376 55.4368 233.271 55.3625 233.591 55.2649C233.575 55.2727 233.56 55.2727 233.544 55.2883C233.544 55.2883 233.524 55.2883 233.524 55.2961C233.353 55.3704 233.021 55.5383 232.458 55.8508C232.681 56.3938 232.849 57.1047 232.931 57.9797C232.907 58.3938 232.872 58.7961 232.856 59.2336C232.856 59.2454 232.856 59.2454 232.856 59.261C232.501 65.0071 234.981 63.3704 235.122 69.7649C235.212 73.6946 235.759 77.1204 236.653 80.2258C240.009 92.0579 248.173 99.3079 253.435 113.12C257.302 123.249 259.595 136.909 257.286 158.468Z" fill="#AEC2EA"/>
<path d="M290.693 155.749C285.911 156.534 277.4 157.277 266.345 157.964C263.482 158.136 260.462 158.308 257.286 158.468C256.146 158.531 254.989 158.589 253.798 158.656C249.646 127.546 250.985 117.57 253.435 113.12C255.907 108.671 259.521 109.784 259.853 100.734C260.142 93.386 256.138 79.5735 251.466 69.0188C251.068 68.1204 256.458 66.5657 256.36 65.7649C256.36 65.7649 256.782 66.1555 257.544 66.929C257.618 67.0071 257.544 67.3196 257.626 67.4172C263.45 73.511 285.466 99.2297 290.263 149.32C290.478 151.507 290.626 153.652 290.693 155.749Z" fill="#AEC2EA"/>
<path d="M252.72 38.3546C259.634 40.6984 263.607 66.0734 255.236 69.3234C240.134 75.1788 230.208 54.8859 230.208 54.8859C230.208 54.8859 223.611 28.503 252.72 38.3546Z" fill="#FEE7E6"/>
<path d="M257.583 44.589C261.142 29.1476 247.47 23.6633 241.517 22.8234C232.103 21.4836 228.216 30.1476 228.216 30.1476C220.755 27.4797 189.072 59.2179 193.837 73.6867C195.525 78.7961 216.201 111.534 234.388 82.7336C239.896 74.0148 245.939 58.3781 241.787 44.6945C245.517 48.8898 254.021 47.3625 257.583 44.589Z" fill="#A2A9B1"/>
<path d="M147.942 162.991C147.919 162.667 147.892 162.339 147.868 162.015C173.747 161.503 187.161 160.359 212.079 155.253C212.56 157.21 213.048 159.085 213.528 160.894L147.942 162.991Z" fill="#42756D"/>
<path d="M128.591 163.609C122.435 152.597 117.15 140.894 117.185 137.652C117.65 97.554 134.337 73.2727 147.423 61.5461C147.454 61.5227 147.489 61.4993 147.521 61.4641V61.4797C148.669 60.4407 149.829 59.4836 150.986 58.6086C154.732 55.7258 158.431 53.6282 161.63 52.1008C164.138 50.886 168.728 49.3508 172.259 48.6985C172.318 48.7258 172.357 48.6829 172.392 48.6985C172.829 48.6516 173.267 48.593 173.665 48.55C176.013 48.2883 177.384 48.2454 177.384 48.2454C177.384 48.2454 179.419 48.4446 185.599 49.6672C188.403 50.2024 191.15 50.9719 193.736 51.8938C197.275 53.1672 209.318 59.2258 214.232 68.9211L214.255 68.9524L214.263 68.9797C218.607 77.5579 239.239 105.499 225.212 160.515L128.591 163.609Z" fill="white"/>
<path d="M176.673 53.4054C176.673 53.4054 166.958 52.8937 167.701 58.9718C168.447 65.0499 174.607 71.7921 181.091 72.2804C187.568 72.7609 193.009 60.9601 191.841 57.3038C190.662 53.6437 176.673 53.4054 176.673 53.4054Z" fill="#F3BBAA"/>
<path d="M176.345 40.4445C176.345 40.4445 171.142 4.79997 188.411 9.05778C205.669 13.3273 210.111 26.589 205.4 37.214C200.693 47.8429 185.97 44.1086 185.97 44.1086L176.345 40.4445Z" fill="#F3BBAA"/>
<path d="M176.345 40.4446C176.345 40.4446 143.36 8.63598 181.603 2.19848C195.317 0.331295 205.704 13.9954 203.47 17.843C194.29 17.7454 178.899 27.7102 176.345 40.4446Z" fill="#3D3542"/>
<path d="M189.767 23.839C189.767 23.839 174.697 15.1788 183.513 28.7843C187.576 29.4132 189.767 23.839 189.767 23.839Z" fill="#F3BBAA"/>
<path d="M176.345 40.4446C176.345 40.4446 173.986 56.2063 174.251 59.4407C174.228 60.9133 191.122 64.3704 192.544 44.3821C189.345 40.8079 176.345 40.4446 176.345 40.4446Z" fill="#F3BBAA"/>
<path d="M172.747 7.21798C172.747 7.21798 160.009 -5.16874 156.931 2.51095C153.857 10.1906 166.337 14.5344 166.337 14.5344L172.747 7.21798Z" fill="#3D3542"/>
<path d="M221.153 188.769C221.153 188.769 227.47 189.538 231.458 193.218C235.446 196.902 233.552 199.37 234.958 201.601C236.345 203.839 243.419 200.609 247.974 204.515C252.54 208.421 249.208 213.984 252.591 217.792C255.962 221.605 263.548 217.972 268.872 224.851C292.255 255.007 251.829 277.421 237.048 266.761C226.196 258.945 210.271 201.359 213.861 190.851C217.446 180.339 221.153 188.769 221.153 188.769Z" fill="#EAF3FF"/>
<path d="M239.224 298.616C236.462 298.691 233.649 298.726 230.813 298.765C228.911 298.784 227.001 298.808 225.091 298.816C223.7 293.136 223.353 289.691 223.353 289.691L238.489 289.206C238.489 289.206 238.505 289.468 238.536 289.964C238.669 291.343 238.927 294.523 239.224 298.616Z" fill="#4A7EFF"/>
<path d="M230.813 298.765C228.911 298.784 227.001 298.808 225.091 298.816C210.642 298.898 196.161 298.691 185.54 298.206C185.481 296.156 185.423 294.292 185.356 292.589L189.907 291.956L225.38 286.894C225.38 286.894 225.833 287.882 226.603 289.585C227.571 291.714 229.06 294.952 230.813 298.765Z" fill="#F37D59"/>
<path d="M248.693 289.808C248.638 291.113 248.56 291.839 248.56 291.839C248.56 291.839 248.572 292.913 248.56 294.738C248.552 295.738 248.544 296.976 248.521 298.386C245.517 298.488 242.4 298.562 239.224 298.616C236.462 298.691 233.65 298.726 230.814 298.765C228.911 298.784 227.001 298.808 225.091 298.816C210.642 298.898 196.161 298.691 185.54 298.206C184.505 298.156 183.521 298.113 182.572 298.046C181.677 288.741 181.099 279.933 181.388 275.484C183.904 237.648 191.841 227.269 195.533 224.472C196.704 223.57 197.451 223.441 197.451 223.441C197.451 223.441 202.173 223.62 202.513 222.234C206.548 221.878 210.236 221.98 213.603 222.48C213.974 222.538 214.329 222.589 214.693 222.663C218.888 223.398 222.56 224.753 225.802 226.601C237.986 233.511 243.829 247.253 246.552 260.339C246.849 261.741 247.099 263.12 247.329 264.499C249.158 275.613 248.919 285.656 248.693 289.808Z" fill="#1C325E"/>
<path d="M206.318 265.112C213.951 262.616 225.876 279.214 241.712 270.644C239.755 268.663 237.572 266.011 235.368 263.054C236.411 262.659 237.462 262.261 238.529 261.89C243.865 260.007 248.943 260.206 254.294 260.355C254.482 261.073 254.665 261.792 254.849 262.534C261.935 291.425 245.591 301.706 214.033 275.886C214.033 275.886 211.079 274.706 204.255 275.523C193.646 278.14 188.849 270.8 206.318 265.112Z" fill="#F7BCAA"/>
<path d="M225.446 222.202C225.446 222.202 247.106 228.609 254.849 262.534C252.341 262.347 243.946 265.319 239.837 268.53C228.431 263.015 206.599 239.671 210.435 232.546C214.271 225.421 214.231 214.761 225.446 222.202Z" fill="#1C325E"/>
<path d="M216.623 213.812C216.623 213.812 228.662 214.917 227.572 222.929C226.49 230.929 211.56 232.413 207.763 232.101C203.959 231.796 198.037 230.366 196.06 226.46C193.669 221.738 198.806 211.534 216.623 213.812Z" fill="white"/>
<path d="M204.357 204.909C204.357 204.909 200.767 220.773 210.56 222.085C214.486 222.613 216.068 219.773 216.365 218.288C217.232 214.034 213.536 209.542 214.825 202.929C209.7 203.515 204.357 204.909 204.357 204.909Z" fill="#F3BBAA"/>
<path d="M215.372 201.089C215.114 202.433 214.778 205.011 214.579 206.281C213.618 212.284 208.282 212.507 201.618 212.409C188.064 212.187 189.575 186.738 206.482 186.671C212.22 186.648 216.81 193.722 215.372 201.089Z" fill="#F7BCAA"/>
<path d="M192.736 199.191C182.025 184.601 204.677 175.253 209.212 183.64C227.091 183.253 229.673 202.284 214.579 206.28C216.357 193.573 209.013 194.929 208.681 189.761C205.306 198.472 193.513 200.237 192.736 199.191Z" fill="#EAF3FF"/>
<path d="M213.063 201.112C214.27 201.757 215.942 201.015 216.802 199.437C217.653 197.859 217.372 196.05 216.173 195.398C214.958 194.753 213.298 195.499 212.435 197.073C211.583 198.652 211.864 200.452 213.063 201.112Z" fill="#F7BCAA"/>
<path d="M141.775 309.359C139.755 311.847 117.896 313.413 92.8683 314.058C61.0793 314.882 24.1652 314.199 16.5246 312.05C15.8137 311.855 15.341 311.648 15.1769 311.417C5.1535 298.452 -2.2254 170.636 8.11444 157.855C18.3683 145.171 146.993 156.64 155.732 171.71C163.22 184.64 154.657 293.425 141.775 309.359Z" fill="#EAF3FF"/>
<path d="M101.329 241.644C101.329 241.644 109.954 258.605 111.529 267.011C117.243 252.191 129.177 245.757 136.165 234.948C137.009 233.651 142.259 228.796 144.642 228.468C147.197 228.112 146.927 232.316 149.513 231.952C155.255 231.151 167.669 224.296 167.247 227.23C164.947 243.249 141.947 240.011 141.947 240.011C141.947 240.011 125.431 297.733 109.255 297.675C93.0754 297.62 79.7043 270.636 79.7043 270.636L101.329 241.644Z" fill="#7F534B"/>
<path d="M99.0871 313.859C67.2903 314.694 30.384 314.109 22.7434 312.085C21.7004 304.429 21.091 295.827 20.966 286.866C20.6613 264.667 23.091 240.136 30.3449 222.191C49.6379 202.823 67.3215 193.136 72.2512 193.441C82.7199 194.077 93.052 206.612 97.4582 221.558C97.4778 221.581 97.4778 221.581 97.4582 221.597C99.2785 227.734 100.544 234.554 101.329 241.636C101.47 242.894 101.611 244.14 101.712 245.402C103.97 270.222 101.298 297.89 99.0871 313.859Z" fill="#2A4B8D"/>
<path d="M72.6145 246.988C72.6145 246.988 96.3762 228.245 93.0754 239.788C89.7863 251.331 88.0402 255.378 76.7668 253.445C69.7863 252.249 72.6145 246.988 72.6145 246.988Z" fill="#7F534B"/>
<path d="M76.7668 253.214C59.1653 290.351 11.0559 293.624 2.42309 278.464C-7.03785 261.866 12.9856 237.956 31.7512 220.855C34.009 226.906 39.8801 241.003 54.7434 247.21C48.6653 252.675 41.384 258.093 32.8489 263.187C47.6809 265.128 73.3411 246.452 73.3411 246.452C73.3411 246.452 77.0911 252.851 76.7668 253.214Z" fill="#7F534B"/>
<path d="M62.763 172.905C62.763 172.905 64.3606 182.437 70.1927 185.745C76.0052 189.058 68.3567 194.433 68.7278 197.405C69.0521 199.964 75.7005 207.601 81.4817 203.921C87.263 200.237 83.7981 188.851 86.095 191.187C86.7903 191.898 91.4896 194.21 93.5638 194.011C96.2044 193.773 102.993 185.366 103.298 183.394C103.689 180.851 101.009 175.062 98.1458 172.273C95.2942 169.48 62.7161 171.444 62.763 172.905Z" fill="#7F534B"/>
<path d="M98.1457 172.273C98.1457 172.273 101.298 166.741 101.114 165.304C101.114 165.304 57.4621 137.988 62.7629 172.906C71.9855 176.788 98.1457 172.273 98.1457 172.273Z" fill="#7F534B"/>
<path d="M68.0324 183.788C68.0324 183.788 52.4581 177.167 58.3136 160.3C59.587 156.609 71.5324 151.273 81.5558 148.542C87.5597 146.905 87.2941 140.226 94.7706 147.343C103.571 155.734 101.114 165.304 101.114 165.304L88.5285 163.495C88.5285 163.495 80.0167 174.081 68.0324 183.788Z" fill="#3D3542"/>
<path d="M83.1028 170.538C83.1028 170.538 72.8138 164.245 77.6185 176.12C82.2825 175.972 83.1028 170.538 83.1028 170.538Z" fill="#7F534B"/>
<path d="M111.529 362.863L111.404 365.909L109.064 370.156L108.865 370.527C108.857 370.534 108.857 370.534 108.857 370.55L102.017 382.96L100.091 386.464L97.2279 391.663L95.8216 394.249L88.4271 407.64L80.8763 421.382C80.8763 421.382 80.2669 426.476 78.3802 431.874C77.7943 431.824 77.2201 431.777 76.6693 431.726C65.7005 430.726 56.6107 429.695 51.5326 429.011C47.0912 414.652 47.0443 393.835 47.306 384.464C47.3998 381.402 47.5052 379.558 47.5052 379.558C47.5052 379.558 47.5052 379.558 48.4662 379.066C50.0521 380.425 51.6732 382.335 53.2552 384.589C59.4583 393.398 65.138 407.534 66.7669 415.23L66.7748 415.214C66.7748 415.187 66.7748 415.179 66.7943 415.148C66.7943 415.128 66.8021 415.105 66.8177 415.066C73.1927 394.585 80.0169 381.136 86.3841 372.351C86.4115 372.3 86.4349 372.261 86.4857 372.226C86.4857 372.202 86.5013 372.187 86.5091 372.179C86.5248 372.152 86.5326 372.136 86.5521 372.113C86.6263 372.023 86.7005 371.913 86.7826 371.816L86.7982 371.808C86.849 371.757 86.8802 371.706 86.931 371.648C87.0794 371.491 87.2357 371.32 87.388 371.163C87.4193 371.12 87.4505 371.089 87.5091 371.046C87.6771 370.847 87.8646 370.659 88.056 370.484C88.2279 370.304 88.4115 370.132 88.6029 369.949C88.974 369.593 89.3373 369.273 89.7005 368.949C89.9154 368.761 90.1302 368.577 90.3373 368.406C90.4388 368.331 90.5365 368.238 90.638 368.183C90.8255 368.015 91.0248 367.886 91.2162 367.745C91.7201 367.363 92.2318 367.019 92.7552 366.679C93.3998 366.265 94.0443 365.886 94.7044 365.546C94.9623 365.417 95.2279 365.277 95.5013 365.152C95.6224 365.085 95.763 365.027 95.8958 364.96C96.1615 364.839 96.4193 364.73 96.6888 364.616C97.0052 364.484 97.3177 364.359 97.6419 364.241C97.8412 364.167 98.0404 364.093 98.2357 364.038C98.5248 363.937 98.8255 363.839 99.1068 363.749C99.5443 363.624 99.9427 363.499 100.388 363.374C100.861 363.277 101.345 363.179 101.826 363.077C101.892 363.062 101.943 363.054 102.001 363.054C104.587 362.566 107.177 362.484 109.701 362.683C110.314 362.726 110.923 362.788 111.529 362.863Z" fill="#3366CC"/>
<path d="M132.603 434.741C128.169 434.714 123.513 434.616 118.79 434.452C113.255 434.253 107.615 433.98 102.025 433.644C98.5364 433.437 95.052 433.195 91.6614 432.949L93.7708 413.257L95.8215 394.249L97.345 380.222V380.21L99.1067 363.749C99.5442 363.624 99.9426 363.499 100.388 363.374C100.861 363.277 101.345 363.179 101.825 363.077C101.892 363.062 101.943 363.054 102.001 363.054C104.587 362.566 107.177 362.484 109.7 362.683C110.314 362.726 110.923 362.788 111.529 362.863C115.97 363.402 120.169 364.714 123.7 366.175C124.208 366.406 124.669 366.605 125.134 366.804C125.329 367.909 125.595 369.37 125.904 371.179C126.763 376.249 127.97 384.011 129.169 394.027V394.124C130.193 402.613 131.185 412.695 131.974 424.128C132.204 427.538 132.419 431.074 132.603 434.741Z" fill="#3366CC"/>
<path d="M102.025 433.644C98.5363 433.437 95.052 433.195 91.6613 432.948C87.0559 432.601 82.5988 432.238 78.3801 431.874C77.7941 431.823 77.2199 431.777 76.6691 431.726C76.1887 422.636 76.3293 414.691 76.8723 407.808C78.3293 389.98 82.5246 378.866 86.4856 372.226C86.4856 372.202 86.5012 372.187 86.509 372.179C86.5246 372.152 86.5324 372.136 86.552 372.113C86.6262 371.988 86.6848 371.882 86.759 371.765C86.7746 371.765 86.7746 371.757 86.7746 371.757C86.7746 371.781 86.7746 371.781 86.7981 371.808C86.8488 371.757 86.8801 371.706 86.9309 371.648C87.0793 371.491 87.2356 371.32 87.3879 371.163C87.4191 371.12 87.4504 371.089 87.509 371.046C87.677 370.847 87.8645 370.659 88.0559 370.484C88.2277 370.304 88.4113 370.132 88.6027 369.948C88.9738 369.593 89.3371 369.273 89.7004 368.948C89.9152 368.761 90.1301 368.577 90.3371 368.406C90.4387 368.331 90.5363 368.238 90.6379 368.183C90.8254 368.015 91.0246 367.886 91.216 367.745C91.7199 367.363 92.2316 367.019 92.7551 366.679C93.3996 366.265 94.0441 365.886 94.7043 365.546C94.9621 365.417 95.2277 365.277 95.5012 365.152C95.6223 365.085 95.7629 365.027 95.8957 364.96C96.1613 364.839 96.4191 364.73 96.6887 364.616C97.0051 364.484 97.3176 364.359 97.6418 364.241C97.841 364.167 98.0402 364.093 98.2356 364.038C98.5246 363.937 98.8254 363.839 99.1066 363.749C99.5441 363.624 99.9426 363.499 100.388 363.374C100.685 363.995 100.884 364.839 100.958 365.96C100.923 366.39 100.876 366.827 100.861 367.288C100.454 371.956 100.212 376.909 100.122 382.038C100.107 383.499 100.091 384.976 100.091 386.464C100.056 401.995 101.122 418.343 102.025 433.644Z" fill="#3366CC"/>
<path d="M156.611 433.585C150.157 434.452 141.806 434.773 132.603 434.741C128.169 434.714 123.513 434.616 118.79 434.452C119.755 411.339 121.798 387.097 123.107 372.683C123.329 370.206 123.529 368.015 123.7 366.175C124.208 366.406 124.669 366.605 125.134 366.804C125.529 366.984 125.911 367.148 126.275 367.323C126.837 367.57 127.357 367.835 127.853 368.081C128.001 368.156 128.142 368.23 128.275 368.288C149.325 385.374 154.361 409.144 156.611 433.585Z" fill="#3366CC"/>
<path d="M61.5403 371.808C59.6731 370.476 53.806 376.124 53.9974 363.195C54.1731 351.257 44.4388 364.382 43.7825 367.53C41.6185 377.859 48.4231 388.073 50.7239 386.659C51.5091 386.585 64.7161 374.085 61.5403 371.808Z" fill="#FEE7E6"/>
<path d="M66.7668 415.222C66.7668 415.222 71.2004 410.343 76.8645 407.796C80.5208 406.148 84.6575 405.445 88.427 407.64C90.3293 408.714 92.1418 410.515 93.7629 413.257C94.8293 415.038 95.7903 417.179 96.6418 419.788C96.2043 409.292 96.5247 399.831 97.2278 391.663C98.095 381.351 99.5754 373.054 100.861 367.288C101.197 365.687 101.56 364.284 101.833 363.07C101.345 363.179 100.868 363.277 100.38 363.374C99.9504 363.499 99.5364 363.624 99.1067 363.749C94.7708 365.042 90.5872 367.57 86.7903 371.816C86.7747 371.8 86.7747 371.773 86.7747 371.749C86.6653 371.585 86.8411 371.988 86.7903 371.816C73.5403 388.839 67.1575 413.57 66.7825 415.148C66.7668 415.195 66.7668 415.222 66.7668 415.222Z" fill="#3366CC"/>
<path d="M122.099 339.917C129.294 342.527 132.833 369.206 123.99 372.409C108.029 378.179 98.1224 356.687 98.1224 356.687C98.1224 356.687 91.8451 328.905 122.099 339.917Z" fill="#FEE7E6"/>
<path d="M101.646 329.316C101.618 326.941 104.372 323.784 110.743 323.37C117.028 322.96 118.857 328.085 119.005 330.226C126.216 329.753 128.798 333.214 130.673 335.585C132.568 337.98 134.907 346.077 128.525 349.085C128.525 349.085 128.4 349.117 128.169 349.214C127.446 349.472 126.747 349.644 126.032 349.695C125.903 349.702 125.763 349.718 125.587 349.745C121.732 350.23 114.689 349.769 108.278 342.23C112.298 356.663 108.103 384.07 103.677 383.433C98.4426 382.671 88.0129 372.441 85.0129 368.316C79.8332 361.206 87.5676 325.038 101.646 329.316Z" fill="#3D3542"/>
<path d="M402.087 264.351C402.087 264.351 389.193 285.695 406.115 292.757C412.872 290.675 412.474 278.281 412.474 278.281L402.087 264.351Z" fill="#7F534B"/>
<path d="M475.927 455.687C472.575 436.038 466.251 421.976 462.603 409.839C456.45 410.745 450.716 412.577 445.509 414.823C445.771 411.472 445.931 409.558 445.931 409.558L396.911 405.452C396.911 405.452 385.595 424.484 383.841 458.636L475.927 455.687Z" fill="#1C325E"/>
<path d="M452.728 308.23L408.876 320.984C394.403 349.933 383.505 398.484 393.521 419.499C406.388 446.507 460.403 428.48 464.341 423.015C483.767 396.038 490.489 387.991 478.794 353.37C478.794 353.37 473.064 323.57 452.728 308.23Z" fill="white"/>
<path d="M456.028 310.745C456.001 310.714 455.97 310.683 455.97 310.683C454.86 309.804 453.751 308.987 452.728 308.23C451.431 307.245 450.212 306.394 449.032 305.569C447.466 304.495 432.075 295.464 416.989 302.64C416.544 302.855 416.122 303.069 415.743 303.265C414.532 303.894 413.235 304.612 411.911 305.429H411.903C409.646 306.769 407.247 308.37 404.899 310.187C397.106 316.237 389.798 324.933 388.622 336.534L389.341 336.507L415.767 342.245L462.388 339.827L466.2 334.038L478.794 353.37C474.485 344.089 463.196 316.37 456.028 310.745Z" fill="white"/>
<path d="M411.853 303.538C389.415 317.788 379.673 334.519 375.614 350.644L390.731 350.156L391.759 382.038L405.188 381.609C422.384 348.374 411.853 303.538 411.853 303.538Z" fill="white"/>
<path d="M416.478 286.812C416.337 307.081 408.669 346.21 402.419 362.351C396.72 377.058 355.74 396.288 378.318 335.956C381.958 326.222 402.939 300.87 406.927 285.566C407.001 285.679 407.048 285.804 407.122 285.902C408.349 287.593 412.353 287.593 416.478 286.812Z" fill="#7F534B"/>
<path d="M448.708 456.554C456.325 449.097 478.771 427.417 486.411 417.749C495.958 405.659 486.899 377.601 478.794 353.37L446.681 363.187C448.7 368.081 459.384 391.195 464.61 399.097C460.368 402.331 447.997 436.531 440.853 446.062C437.188 447.925 434.665 452.187 433.251 457.05L448.708 456.554Z" fill="#7F534B"/>
<path d="M423.118 282.905C422.169 284.277 417.345 286.066 412.681 286.933C408.564 287.71 404.56 287.718 403.337 286.019C403.263 285.929 403.204 285.804 403.13 285.679C400.575 281.12 397.571 258.843 399.904 256.359C402.302 253.808 413.806 255.394 413.806 255.394C413.806 255.394 424.896 280.37 423.118 282.905Z" fill="#3864BC"/>
<path d="M442.107 287.659C442.107 287.659 452.619 292.394 457.83 283.491C462.447 275.597 456.15 271.831 456.15 271.831C456.15 271.831 467.947 270.562 462.232 257.034C456.525 243.519 449.462 249.062 449.462 249.062C449.462 249.062 455.29 238.945 444.341 233.851C434.872 229.441 429.626 239.241 429.626 239.241C429.626 239.241 424.509 234.882 417.654 236.781C407.705 239.531 409.986 252.859 409.986 252.859L437.478 255.609C437.478 255.609 445.724 279.245 442.107 287.659Z" fill="#3D3542"/>
<path d="M445.724 279.245C444.341 286.671 439.618 292.757 432.771 294.878C422.274 298.089 410.72 290.773 406.907 278.538C403.146 266.261 408.587 253.734 419.067 250.495C424.286 248.878 429.778 249.886 434.458 252.843C439.157 255.78 443.044 260.671 444.927 266.82C446.251 271.073 446.442 275.343 445.724 279.245Z" fill="#7F534B"/>
<path d="M406.485 264.788C406.825 265.382 421.614 253.03 435.724 269.562C437.939 266.753 444.364 265.374 441.974 275.945C443.837 277.777 445.294 279.089 445.712 279.245C453.255 264.23 447.013 241.39 430.786 247.097C413.294 239.976 404.56 257.698 406.485 264.788Z" fill="#3D3542"/>
<path d="M445.821 305.05C442.97 304.058 438.536 301.261 438.536 301.261C438.669 300.581 438.767 299.882 438.857 299.222C440.017 290.269 438.107 281.417 438.107 281.417L423.782 281.445C423.782 281.445 424.755 294.714 422.638 302.316C421.165 303.284 417.661 304.999 417.661 304.999C417.661 304.999 410.794 330.011 427.154 327.284C436.044 325.8 449.849 310.691 445.821 305.05Z" fill="#7F534B"/>
<path d="M38.1926 408.327C38.1926 408.327 38.2004 408.55 38.2434 408.937C38.2161 408.749 38.1926 408.558 38.1692 408.359C38.177 408.335 38.1926 408.327 38.1926 408.327Z" fill="#42756D"/>
<path d="M236.091 80.2805C236.091 80.2805 249.794 107.999 256.798 103.335C263.814 98.6711 251.912 70.2922 251.912 70.2922C256.915 73.8508 268.931 98.0032 268.931 98.0032C268.931 98.0032 264.259 119.55 263.814 119.659C263.365 119.777 244.122 119.777 244.122 119.777C244.122 119.777 233.732 83.9485 236.091 80.2805Z" fill="#AEC2EA"/>
</svg>
