<svg width="21" height="21" viewBox="0 0 21 21" fill="none" xmlns="http://www.w3.org/2000/svg">
<path d="M9.65962 10.6108L0.212102 1.16326C0.0861995 1.03732 0.0861995 0.833163 0.212102 0.70722C0.338046 0.581317 0.5422 0.581317 0.668143 0.70722L10.1157 10.1547L19.5632 0.70722C19.6913 0.583494 19.8955 0.587042 20.0192 0.715162C20.1399 0.840138 20.1399 1.03828 20.0192 1.16326L10.5717 10.6108L20.0192 20.0583C20.1473 20.1821 20.1509 20.3862 20.0271 20.5143C19.9034 20.6425 19.6992 20.646 19.5711 20.5222C19.5684 20.5197 19.5658 20.517 19.5632 20.5143L10.1157 11.0668L0.668143 20.5143C0.540023 20.6381 0.335869 20.6346 0.212102 20.5064C0.0913598 20.3815 0.0913598 20.1833 0.212102 20.0583L9.65962 10.6108Z" fill="#54595D"/>
</svg>
