<svg width="20" height="18" viewBox="0 0 20 18" fill="none" xmlns="http://www.w3.org/2000/svg">
<path d="M19.9864 0.710284C20.0839 0.25642 19.639 -0.126271 19.2049 0.039352L0.376951 7.22679C0.150351 7.31331 0.000469849 7.5305 1.10263e-06 7.77303C-0.000467643 8.01561 0.148554 8.23338 0.374842 8.32076L5.66397 10.3635V16.7976C5.66397 17.069 5.85034 17.3048 6.1144 17.3676C6.3767 17.43 6.65022 17.3052 6.77318 17.0612L8.9607 12.7203L14.2991 16.6821C14.6238 16.9231 15.0906 16.7699 15.2087 16.3826C20.193 0.0406417 19.9776 0.751338 19.9864 0.710284ZM15.3388 2.76956L6.16686 9.3015L2.22049 7.77737L15.3388 2.76956ZM6.83584 10.2637L14.8306 4.57013C7.95122 11.8275 8.31051 11.4455 8.28051 11.4859C8.23594 11.5459 8.35805 11.3121 6.83584 14.3328V10.2637ZM14.3302 15.2459L9.63121 11.7586L18.1277 2.79534L14.3302 15.2459Z" fill="#F8F9FA"/>
</svg>
