<svg width="137" height="49" viewBox="0 0 137 49" fill="none" xmlns="http://www.w3.org/2000/svg">
<path d="M51.0133 10.0931H56.1333L59.3733 19.4931L62.6533 10.0931H67.7333L62.8533 23.0131L66.4533 32.0531L74.4933 10.0131H80.4933L69.1333 38.4131H64.3733L59.3733 26.4931L54.4133 38.4131H49.6533L38.3333 10.0131H44.2533L52.3333 32.0531L55.8533 23.0131L51.0133 10.0931ZM83.4026 38.4131V10.0131H88.9226V38.4131H83.4026ZM94.8479 38.4131V10.0531H100.368V23.5331L112.288 10.0131H118.368L107.488 22.6131L119.048 38.4131H112.808L103.968 26.1731L100.368 29.9331V38.4131H94.8479ZM121.606 38.4131V10.0131H127.126V38.4131H121.606Z" fill="black"/>
<path d="M11.1426 21H8.83789V14.3594C8.83789 13.526 8.66862 12.9043 8.33008 12.4941C7.99805 12.084 7.46745 11.8789 6.73828 11.8789C5.77474 11.8789 5.0651 12.1686 4.60938 12.748C4.16016 13.321 3.93555 14.2845 3.93555 15.6387V21H1.64062V5.80469H3.93555V9.66211C3.93555 10.2806 3.89648 10.9414 3.81836 11.6445H3.96484C4.27734 11.1237 4.71029 10.7201 5.26367 10.4336C5.82357 10.1471 6.47461 10.0039 7.2168 10.0039C9.83398 10.0039 11.1426 11.3223 11.1426 13.959V21ZM19.0527 21.1953C17.373 21.1953 16.0579 20.707 15.1074 19.7305C14.1634 18.7474 13.6914 17.3965 13.6914 15.6777C13.6914 13.9134 14.1309 12.5267 15.0098 11.5176C15.8887 10.5085 17.0964 10.0039 18.6328 10.0039C20.0586 10.0039 21.1849 10.4368 22.0117 11.3027C22.8385 12.1686 23.252 13.36 23.252 14.877V16.1172H16.0547C16.0872 17.1654 16.3704 17.9727 16.9043 18.5391C17.4382 19.099 18.1901 19.3789 19.1602 19.3789C19.7982 19.3789 20.3906 19.3203 20.9375 19.2031C21.4909 19.0794 22.0833 18.8776 22.7148 18.5977V20.4629C22.1549 20.7298 21.5885 20.9186 21.0156 21.0293C20.4427 21.14 19.7884 21.1953 19.0527 21.1953ZM18.6328 11.7422C17.9036 11.7422 17.3177 11.9733 16.875 12.4355C16.4388 12.8978 16.1784 13.5716 16.0938 14.457H20.9961C20.9831 13.5651 20.7682 12.8913 20.3516 12.4355C19.9349 11.9733 19.362 11.7422 18.6328 11.7422ZM24.2188 10.1992H26.7188L28.916 16.3223C29.248 17.1947 29.4694 18.015 29.5801 18.7832H29.6582C29.7168 18.4251 29.8242 17.9922 29.9805 17.4844C30.1367 16.9701 30.9635 14.5417 32.4609 10.1992H34.9414L30.3223 22.4355C29.4824 24.6816 28.0827 25.8047 26.123 25.8047C25.6152 25.8047 25.1204 25.7493 24.6387 25.6387V23.8223C24.9837 23.9004 25.3776 23.9395 25.8203 23.9395C26.9271 23.9395 27.7051 23.2982 28.1543 22.0156L28.5547 21L24.2188 10.1992Z" fill="#3366CC"/>
</svg>
